<?xml version="1.0" encoding="utf-8"?>
<!-- Generator: Adobe Illustrator 16.0.0, SVG Export Plug-In . SVG Version: 6.00 Build 0)  -->
<!DOCTYPE svg PUBLIC "-//W3C//DTD SVG 1.1//EN" "http://www.w3.org/Graphics/SVG/1.1/DTD/svg11.dtd">
<svg version="1.1" xmlns="http://www.w3.org/2000/svg" xmlns:xlink="http://www.w3.org/1999/xlink" x="0px" y="0px"
	 width="596.82px" height="375.2px" viewBox="0 0 596.82 375.2" style="enable-background:new 0 0 596.82 375.2;"
	 xml:space="preserve">
<g id="Background_Complete">
	<rect x="456.83" y="346.68" style="fill:#EBEBEB;" width="33.12" height="0.25"/>
	<rect x="362.58" y="349.39" style="fill:#EBEBEB;" width="8.69" height="0.25"/>
	<rect x="436.64" y="337.39" style="fill:#EBEBEB;" width="19.19" height="0.25"/>
	<rect x="92.51" y="339.08" style="fill:#EBEBEB;" width="43.19" height="0.25"/>
	<rect x="144.61" y="339.08" style="fill:#EBEBEB;" width="6.33" height="0.25"/>
	<rect x="171.53" y="343.3" style="fill:#EBEBEB;" width="93.68" height="0.25"/>
	<path style="fill:#EBEBEB;" d="M277.07,285.99H83.97c-3.15,0-5.71-2.56-5.71-5.71V8.85c0-3.15,2.56-5.71,5.71-5.71h193.1
		c3.15,0,5.71,2.56,5.71,5.71v271.43C282.78,283.43,280.22,285.99,277.07,285.99z M83.97,3.39c-3.01,0-5.46,2.45-5.46,5.46v271.43
		c0,3.01,2.45,5.46,5.46,5.46h193.1c3.01,0,5.46-2.45,5.46-5.46V8.85c0-3.01-2.45-5.46-5.46-5.46H83.97z"/>
	<path style="fill:#EBEBEB;" d="M493.37,285.99h-193.1c-3.15,0-5.71-2.56-5.71-5.71V8.85c0-3.15,2.56-5.71,5.71-5.71h193.1
		c3.15,0,5.71,2.56,5.71,5.71v271.43C499.07,283.43,496.51,285.99,493.37,285.99z M300.27,3.39c-3.01,0-5.46,2.45-5.46,5.46v271.43
		c0,3.01,2.45,5.46,5.46,5.46h193.1c3.01,0,5.46-2.45,5.46-5.46V8.85c0-3.01-2.45-5.46-5.46-5.46H300.27z"/>
	<rect x="40.06" y="330.58" style="fill:#EBEBEB;" width="500" height="0.25"/>
	<g>
		<g>
			<rect x="166.84" y="190.8" style="fill:#E6E6E6;" width="22.4" height="94.96"/>
			<g>
				<rect x="204.18" y="158.42" style="fill:#E0E0E0;" width="22.4" height="127.34"/>
			</g>
			<g>
				<rect x="241.52" y="190.8" style="fill:#EBEBEB;" width="22.4" height="94.96"/>
			</g>
			<g>
				<rect x="92.16" y="223.18" style="fill:#F0F0F0;" width="22.4" height="62.58"/>
			</g>
			<g>
				<rect x="129.5" y="207.55" style="fill:#EBEBEB;" width="22.4" height="78.21"/>
			</g>
			<rect x="278.85" y="223.18" style="fill:#F5F5F5;" width="22.4" height="62.58"/>
			<g>
				<rect x="465.55" y="126.04" style="fill:#E0E0E0;" width="22.4" height="159.72"/>
			</g>
			<g>
				<rect x="316.19" y="190.8" style="fill:#F0F0F0;" width="22.4" height="94.96"/>
			</g>
			<g>
				<rect x="428.21" y="158.42" style="fill:#E6E6E6;" width="22.4" height="127.34"/>
			</g>
			<rect x="390.87" y="175.17" style="fill:#EBEBEB;" width="22.4" height="110.59"/>
			<g>
				<rect x="353.53" y="207.55" style="fill:#F0F0F0;" width="22.4" height="78.21"/>
			</g>
		</g>
		<g>
			<g>
				<g>
					<circle style="fill:#E0E0E0;" cx="107.97" cy="160.59" r="15.63"/>
				</g>
				<circle style="fill:#E6E6E6;" cx="109.84" cy="160.59" r="15.63"/>
				<circle style="fill:#F0F0F0;" cx="109.84" cy="160.59" r="11.7"/>
			</g>
			<g>
				<path style="fill:#FFFFFF;" d="M114.98,163.08c0.45,2.59-1.33,4.32-4.53,4.59l-0.05,2.14h-1.94l0.05-2.14
					c-1.88-0.17-3.61-0.76-4.73-1.5l0.88-2.41c1.16,0.76,2.55,1.24,3.92,1.38l0.09-3.29c-1.9-0.54-4.01-1.26-4.42-3.62
					c-0.45-2.59,1.36-4.33,4.63-4.57l0.05-2.14h1.94l-0.05,2.16c1.4,0.14,2.74,0.53,3.77,1.11l-0.76,2.41
					c-0.94-0.56-2-0.9-3.07-1.01l-0.08,3.42C112.54,160.14,114.59,160.84,114.98,163.08z M108.72,159.07l0.07-2.8
					c-1.07,0.21-1.59,0.82-1.48,1.56C107.42,158.43,107.97,158.78,108.72,159.07z M111.92,163.58c-0.1-0.56-0.61-0.91-1.33-1.17
					l-0.06,2.66C111.54,164.87,112.05,164.32,111.92,163.58z"/>
			</g>
		</g>
		<g>
			<g>
				<path style="fill:#F0F0F0;" d="M480.1,74.41h-81.39c-4.14,0-7.49-3.36-7.49-7.49V36.17c0-4.14,3.35-7.49,7.49-7.49h81.39
					c4.14,0,7.49,3.36,7.49,7.49v30.75C487.6,71.06,484.24,74.41,480.1,74.41z"/>
			</g>
			<g>
				<path style="fill:#FFFFFF;" d="M416.24,68.82h-6.77c-0.4,0-0.72-0.32-0.73-0.72V35.62c0-0.4,0.32-0.72,0.73-0.72h6.77
					c0.4,0,0.72,0.32,0.72,0.72V68.1C416.96,68.5,416.64,68.82,416.24,68.82z"/>
				<path style="fill:#FFFFFF;" d="M471.74,68.82h-6.77c-0.4,0-0.73-0.32-0.73-0.72V35.62c0-0.4,0.32-0.72,0.73-0.72h6.77
					c0.4,0,0.72,0.32,0.72,0.72V68.1C472.47,68.5,472.14,68.82,471.74,68.82z"/>
				<path style="fill:#FFFFFF;" d="M444.96,68.82h-6.77c-0.4,0-0.72-0.32-0.73-0.72l0-21.29c0-0.4,0.32-0.72,0.72-0.72h6.77
					c0.4,0,0.72,0.32,0.72,0.72V68.1C445.68,68.5,445.36,68.82,444.96,68.82z"/>
				<path style="fill:#FFFFFF;" d="M430.72,68.82h-6.77c-0.4,0-0.72-0.32-0.72-0.72V52.27c0-0.4,0.32-0.73,0.72-0.73h6.77
					c0.4,0,0.72,0.32,0.72,0.73V68.1C431.44,68.5,431.12,68.82,430.72,68.82z"/>
				<path style="fill:#FFFFFF;" d="M458.35,68.82h-6.77c-0.4,0-0.72-0.32-0.72-0.72v-2.55c0-0.4,0.32-0.72,0.72-0.72h6.77
					c0.4,0,0.72,0.32,0.72,0.72v2.55C459.07,68.5,458.75,68.82,458.35,68.82z"/>
			</g>
			<path style="fill:#E0E0E0;" d="M468.48,34.7c-0.38-0.19-0.83-0.02-0.99,0.37l-11.99,26.04c-0.23,0.55-0.99,0.61-1.29,0.1
				l-11.17-16.95c-0.21-0.36-0.68-0.46-1.03-0.23l-13.92,5.6c-0.22,0.15-0.52,0.16-0.75,0.03l-15.26-15.39
				c-0.37-0.2-0.83-0.05-1.01,0.33l-0.04,0.08c-0.16,0.35-0.02,0.75,0.31,0.94l16.06,15.83c0.24,0.13,0.53,0.12,0.75-0.03
				l13.41-5.26c0.34-0.23,0.81-0.13,1.03,0.23l11.83,18.07c0.31,0.51,1.07,0.46,1.29-0.1l13.1-28.75
				C468.97,35.27,468.82,34.87,468.48,34.7z"/>
		</g>
		<g>
			<g>
				<g>
					<circle style="fill:#E0E0E0;" cx="261.26" cy="56.97" r="16.31"/>
					<circle style="opacity:0.8;fill:#FFFFFF;" cx="261.06" cy="56.97" r="13.09"/>
				</g>
			</g>
			<g>
				<circle style="fill:#E0E0E0;" cx="261.03" cy="58.05" r="1.33"/>
			</g>
			<g>
				<polygon style="fill:#E0E0E0;" points="260.88,58.54 255.25,53.24 255.79,52.66 260.89,57.46 270.04,49.39 270.57,49.98 				"/>
			</g>
		</g>
	</g>
</g>
<g id="Background_Simple" style="display:none;">
	<g style="display:inline;">
		<g>
			<path style="fill:#407BFF;" d="M118.83,289.92c-9.44-35.96-2.96-75.79,17.38-106.91c5.24-8.01,11.53-15.63,19.81-20.43
				c8.28-4.81,18.85-6.43,27.51-2.35c9.85,4.64,15.15,15.18,20.92,24.41c5.77,9.23,14.36,18.62,25.24,18.19
				c6.48-0.25,12.24-4.01,17.47-7.84c53.57-39.25,91.75-100.07,152.76-126.31c13.51-5.81,29.39-9.62,42.6-3.17
				c14.48,7.07,21.07,24.29,22.56,40.34c2.33,24.97-4.53,50.21-16.3,72.36c-11.77,22.15-28.25,41.45-45.98,59.19
				c-45.9,45.95-102.97,83.36-167.02,94.12c-21.44,3.6-43.75,4.13-64.68-1.76s-40.44-18.67-51.58-37.34
				C119.59,294.02,118.83,289.92,118.83,289.92z"/>
		</g>
		<g style="opacity:0.9;">
			<path style="fill:#FFFFFF;" d="M118.83,289.92c-9.44-35.96-2.96-75.79,17.38-106.91c5.24-8.01,11.53-15.63,19.81-20.43
				c8.28-4.81,18.85-6.43,27.51-2.35c9.85,4.64,15.15,15.18,20.92,24.41c5.77,9.23,14.36,18.62,25.24,18.19
				c6.48-0.25,12.24-4.01,17.47-7.84c53.57-39.25,91.75-100.07,152.76-126.31c13.51-5.81,29.39-9.62,42.6-3.17
				c14.48,7.07,21.07,24.29,22.56,40.34c2.33,24.97-4.53,50.21-16.3,72.36c-11.77,22.15-28.25,41.45-45.98,59.19
				c-45.9,45.95-102.97,83.36-167.02,94.12c-21.44,3.6-43.75,4.13-64.68-1.76s-40.44-18.67-51.58-37.34
				C119.59,294.02,118.83,289.92,118.83,289.92z"/>
		</g>
	</g>
</g>
<g id="Shadow">
	<ellipse id="_x3C_Path_x3E__359_" style="fill:#F5F5F5;" cx="290.06" cy="313.88" rx="193.89" ry="11.32"/>
</g>
<g id="Chart_2">
	<g>
		<g>
			<rect x="257.25" y="186.35" style="fill:#407BFF;" width="66.02" height="128.26"/>
			<rect x="274.26" y="186.35" style="opacity:0.5;" width="49.23" height="128.26"/>
		</g>
		<g>
			<rect x="343.5" y="230.08" style="fill:#407BFF;" width="66.02" height="84.53"/>
			<rect x="360.29" y="229.88" style="opacity:0.3;" width="49.23" height="84.73"/>
		</g>
		<g>
			<rect x="170.59" y="209.23" style="fill:#407BFF;" width="66.02" height="105.38"/>
			<rect x="187.38" y="208.97" style="opacity:0.4;" width="49.23" height="105.64"/>
		</g>
	</g>
</g>
<g id="Coins">
	<g>
		<g>
			<g>
				<g>
					
						<ellipse transform="matrix(-0.9991 -0.0424 0.0424 -0.9991 409.3911 639.5751)" style="fill:#407BFF;" cx="211.48" cy="315.44" rx="15.21" ry="3.85"/>
					
						<rect x="209.64" y="298.31" transform="matrix(0.0423 -0.9991 0.9991 0.0423 -110.6347 511.6188)" style="fill:#407BFF;" width="3.85" height="30.42"/>
				</g>
				<g>
					
						<ellipse transform="matrix(-0.9991 -0.0424 0.0424 -0.9991 409.8704 631.8937)" style="fill:#407BFF;" cx="211.64" cy="311.6" rx="15.21" ry="3.85"/>
					
						<ellipse transform="matrix(-0.9991 -0.0424 0.0424 -0.9991 409.8704 631.8937)" style="opacity:0.4;fill:#FFFFFF;" cx="211.64" cy="311.6" rx="15.21" ry="3.85"/>
				</g>
				<g>
					<path style="fill:#407BFF;" d="M198.39,310.88c-0.01,0.13,0.04,0.28,0.13,0.38c1.02-1.25,6.57-1.98,13.21-1.7
						c6.66,0.28,12.13,1.49,13.02,2.82c0.09-0.1,0.16-0.24,0.16-0.37c0.06-1.44-5.82-2.88-13.15-3.19
						C204.45,308.51,198.45,309.44,198.39,310.88z"/>
					<path style="opacity:0.4;fill:#407BFF;" d="M198.39,310.88c-0.01,0.13,0.04,0.28,0.13,0.38c1.02-1.25,6.57-1.98,13.21-1.7
						c6.66,0.28,12.13,1.49,13.02,2.82c0.09-0.1,0.16-0.24,0.16-0.37c0.06-1.44-5.82-2.88-13.15-3.19
						C204.45,308.51,198.45,309.44,198.39,310.88z"/>
				</g>
				<g>
					<path style="opacity:0.4;fill:#407BFF;" d="M198.52,311.26c0.91,1.33,6.38,2.53,13.02,2.82c6.66,0.28,12.21-0.45,13.21-1.7
						c-0.89-1.33-6.36-2.53-13.02-2.82C205.09,309.28,199.53,310.01,198.52,311.26z"/>
				</g>
			</g>
			<g>
				<g>
					
						<ellipse transform="matrix(-0.9991 -0.0424 0.0424 -0.9991 403.2544 627.7886)" style="fill:#407BFF;" cx="208.29" cy="309.62" rx="15.21" ry="3.85"/>
					
						<rect x="206.44" y="292.48" transform="matrix(0.0425 -0.9991 0.9991 0.0425 -107.8945 502.8071)" style="fill:#407BFF;" width="3.85" height="30.42"/>
				</g>
				<g>
					
						<ellipse transform="matrix(-0.9991 -0.0424 0.0424 -0.9991 403.7349 620.1072)" style="fill:#407BFF;" cx="208.45" cy="305.77" rx="15.21" ry="3.85"/>
					
						<ellipse transform="matrix(-0.9991 -0.0424 0.0424 -0.9991 403.7349 620.1072)" style="opacity:0.4;fill:#FFFFFF;" cx="208.45" cy="305.77" rx="15.21" ry="3.85"/>
				</g>
				<g>
					<path style="fill:#407BFF;" d="M195.19,305.06c-0.01,0.12,0.04,0.28,0.13,0.38c1.02-1.25,6.57-1.98,13.21-1.7
						c6.66,0.28,12.13,1.49,13.02,2.82c0.1-0.1,0.16-0.24,0.16-0.37c0.06-1.44-5.82-2.88-13.15-3.19
						C201.26,302.68,195.26,303.62,195.19,305.06z"/>
					<path style="opacity:0.4;fill:#407BFF;" d="M195.19,305.06c-0.01,0.12,0.04,0.28,0.13,0.38c1.02-1.25,6.57-1.98,13.21-1.7
						c6.66,0.28,12.13,1.49,13.02,2.82c0.1-0.1,0.16-0.24,0.16-0.37c0.06-1.44-5.82-2.88-13.15-3.19
						C201.26,302.68,195.26,303.62,195.19,305.06z"/>
				</g>
				<g>
					<path style="opacity:0.4;fill:#407BFF;" d="M195.32,305.43c0.91,1.33,6.38,2.53,13.02,2.82c6.66,0.28,12.21-0.45,13.21-1.7
						c-0.89-1.33-6.36-2.53-13.02-2.82C201.9,303.45,196.34,304.18,195.32,305.43z"/>
				</g>
			</g>
			<g>
				<g>
					
						<ellipse transform="matrix(-0.9991 -0.0424 0.0424 -0.9991 404.37 613.7768)" style="fill:#407BFF;" cx="208.7" cy="302.6" rx="15.21" ry="3.85"/>
					
						<rect x="206.86" y="285.46" transform="matrix(0.0423 -0.9991 0.9991 0.0423 -100.4562 496.5397)" style="fill:#407BFF;" width="3.85" height="30.42"/>
				</g>
				<g>
					
						<ellipse transform="matrix(-0.9991 -0.0424 0.0424 -0.9991 404.8594 606.0879)" style="fill:#407BFF;" cx="208.86" cy="298.75" rx="15.21" ry="3.85"/>
					
						<ellipse transform="matrix(-0.9991 -0.0424 0.0424 -0.9991 404.8594 606.0879)" style="opacity:0.4;fill:#FFFFFF;" cx="208.86" cy="298.75" rx="15.21" ry="3.85"/>
				</g>
				<g>
					<path style="fill:#407BFF;" d="M195.61,298.04c0,0.12,0.04,0.28,0.13,0.38c1.02-1.25,6.57-1.98,13.21-1.7
						c6.66,0.28,12.13,1.49,13.02,2.82c0.09-0.1,0.16-0.24,0.16-0.37c0.06-1.44-5.82-2.88-13.15-3.19
						C201.67,295.66,195.67,296.6,195.61,298.04z"/>
					<path style="opacity:0.4;fill:#407BFF;" d="M195.61,298.04c0,0.12,0.04,0.28,0.13,0.38c1.02-1.25,6.57-1.98,13.21-1.7
						c6.66,0.28,12.13,1.49,13.02,2.82c0.09-0.1,0.16-0.24,0.16-0.37c0.06-1.44-5.82-2.88-13.15-3.19
						C201.67,295.66,195.67,296.6,195.61,298.04z"/>
				</g>
				<g>
					<path style="opacity:0.4;fill:#407BFF;" d="M195.74,298.41c0.91,1.33,6.38,2.53,13.02,2.82c6.66,0.28,12.21-0.45,13.21-1.7
						c-0.89-1.33-6.36-2.53-13.02-2.82C202.31,296.43,196.75,297.16,195.74,298.41z"/>
				</g>
			</g>
			<g>
				<g>
					
						<ellipse transform="matrix(-0.9991 -0.0424 0.0424 -0.9991 398.2335 601.9902)" style="fill:#407BFF;" cx="205.51" cy="296.77" rx="15.21" ry="3.85"/>
					
						<rect x="203.66" y="279.63" transform="matrix(0.0425 -0.9991 0.9991 0.0425 -97.7157 487.7296)" style="fill:#407BFF;" width="3.85" height="30.42"/>
				</g>
				<g>
					
						<ellipse transform="matrix(-0.9991 -0.0424 0.0424 -0.9991 398.7242 594.3016)" style="fill:#407BFF;" cx="205.67" cy="292.92" rx="15.21" ry="3.85"/>
					
						<ellipse transform="matrix(-0.9991 -0.0424 0.0424 -0.9991 398.7242 594.3016)" style="opacity:0.4;fill:#FFFFFF;" cx="205.67" cy="292.92" rx="15.21" ry="3.85"/>
				</g>
				<g>
					<path style="fill:#407BFF;" d="M192.42,292.21c-0.01,0.12,0.04,0.28,0.13,0.38c1.02-1.25,6.57-1.98,13.21-1.7
						c6.66,0.28,12.13,1.49,13.02,2.82c0.09-0.1,0.16-0.24,0.16-0.37c0.06-1.44-5.82-2.88-13.15-3.19
						C198.48,289.83,192.48,290.77,192.42,292.21z"/>
					<path style="opacity:0.4;fill:#407BFF;" d="M192.42,292.21c-0.01,0.12,0.04,0.28,0.13,0.38c1.02-1.25,6.57-1.98,13.21-1.7
						c6.66,0.28,12.13,1.49,13.02,2.82c0.09-0.1,0.16-0.24,0.16-0.37c0.06-1.44-5.82-2.88-13.15-3.19
						C198.48,289.83,192.48,290.77,192.42,292.21z"/>
				</g>
				<g>
					<path style="opacity:0.4;fill:#407BFF;" d="M192.54,292.58c0.91,1.33,6.38,2.53,13.02,2.82c6.66,0.28,12.21-0.45,13.21-1.7
						c-0.89-1.33-6.36-2.53-13.02-2.82C199.12,290.6,193.56,291.33,192.54,292.58z"/>
				</g>
			</g>
			<g>
				<g>
					
						<ellipse transform="matrix(-0.9991 -0.0424 0.0424 -0.9991 408.2003 592.3154)" style="fill:#407BFF;" cx="210.38" cy="291.83" rx="15.21" ry="3.85"/>
					
						<rect x="208.54" y="274.69" transform="matrix(0.0423 -0.9991 0.9991 0.0423 -88.089 487.9058)" style="fill:#407BFF;" width="3.85" height="30.42"/>
				</g>
				<g>
					
						<ellipse transform="matrix(-0.9991 -0.0424 0.0424 -0.9991 408.6801 584.6339)" style="fill:#407BFF;" cx="210.55" cy="287.98" rx="15.21" ry="3.85"/>
					
						<ellipse transform="matrix(-0.9991 -0.0424 0.0424 -0.9991 408.6801 584.6339)" style="opacity:0.4;fill:#FFFFFF;" cx="210.55" cy="287.98" rx="15.21" ry="3.85"/>
				</g>
				<g>
					<path style="fill:#407BFF;" d="M197.29,287.27c0,0.13,0.04,0.28,0.13,0.38c1.02-1.25,6.57-1.98,13.21-1.7
						c6.66,0.28,12.13,1.49,13.02,2.82c0.09-0.1,0.16-0.24,0.16-0.37c0.06-1.44-5.82-2.88-13.15-3.19
						C203.35,284.89,197.35,285.83,197.29,287.27z"/>
					<path style="opacity:0.4;fill:#407BFF;" d="M197.29,287.27c0,0.13,0.04,0.28,0.13,0.38c1.02-1.25,6.57-1.98,13.21-1.7
						c6.66,0.28,12.13,1.49,13.02,2.82c0.09-0.1,0.16-0.24,0.16-0.37c0.06-1.44-5.82-2.88-13.15-3.19
						C203.35,284.89,197.35,285.83,197.29,287.27z"/>
				</g>
				<g>
					<path style="opacity:0.4;fill:#407BFF;" d="M197.42,287.65c0.91,1.33,6.38,2.53,13.02,2.82c6.66,0.28,12.21-0.45,13.21-1.7
						c-0.89-1.33-6.36-2.53-13.02-2.82C203.99,285.66,198.44,286.4,197.42,287.65z"/>
				</g>
			</g>
			<g>
				<g>
					
						<ellipse transform="matrix(-0.9991 -0.0424 0.0424 -0.9991 402.0637 580.529)" style="fill:#407BFF;" cx="207.19" cy="286" rx="15.21" ry="3.85"/>
					
						<rect x="205.35" y="268.87" transform="matrix(0.0425 -0.9991 0.9991 0.0425 -85.3488 479.0971)" style="fill:#407BFF;" width="3.85" height="30.42"/>
				</g>
				<g>
					
						<ellipse transform="matrix(-0.9991 -0.0424 0.0424 -0.9991 402.5449 572.8475)" style="fill:#407BFF;" cx="207.35" cy="282.15" rx="15.21" ry="3.85"/>
					
						<ellipse transform="matrix(-0.9991 -0.0424 0.0424 -0.9991 402.5449 572.8475)" style="opacity:0.4;fill:#FFFFFF;" cx="207.35" cy="282.15" rx="15.21" ry="3.85"/>
				</g>
				<g>
					<path style="fill:#407BFF;" d="M194.1,281.44c-0.01,0.13,0.04,0.28,0.13,0.38c1.02-1.25,6.57-1.98,13.21-1.7
						c6.66,0.28,12.13,1.49,13.02,2.82c0.09-0.1,0.16-0.24,0.16-0.37c0.06-1.44-5.82-2.88-13.15-3.19
						C200.16,279.06,194.16,280,194.1,281.44z"/>
					<path style="opacity:0.4;fill:#407BFF;" d="M194.1,281.44c-0.01,0.13,0.04,0.28,0.13,0.38c1.02-1.25,6.57-1.98,13.21-1.7
						c6.66,0.28,12.13,1.49,13.02,2.82c0.09-0.1,0.16-0.24,0.16-0.37c0.06-1.44-5.82-2.88-13.15-3.19
						C200.16,279.06,194.16,280,194.1,281.44z"/>
				</g>
				<g>
					<path style="opacity:0.4;fill:#407BFF;" d="M194.23,281.82c0.91,1.33,6.38,2.53,13.02,2.82c6.66,0.28,12.21-0.45,13.21-1.7
						c-0.89-1.33-6.36-2.53-13.02-2.82C200.8,279.83,195.24,280.57,194.23,281.82z"/>
				</g>
			</g>
			<g>
				<g>
					
						<ellipse transform="matrix(-0.9991 -0.0424 0.0424 -0.9991 318.8624 633.9279)" style="fill:#407BFF;" cx="166.16" cy="313.58" rx="15.21" ry="3.85"/>
					
						<rect x="164.31" y="296.45" transform="matrix(0.0423 -0.9991 0.9991 0.0423 -152.1785 464.5508)" style="fill:#407BFF;" width="3.85" height="30.42"/>
				</g>
				<g>
					
						<ellipse transform="matrix(-0.9991 -0.0424 0.0424 -0.9991 319.3416 626.2449)" style="fill:#407BFF;" cx="166.32" cy="309.73" rx="15.21" ry="3.85"/>
					
						<ellipse transform="matrix(-0.9991 -0.0424 0.0424 -0.9991 319.3416 626.2449)" style="opacity:0.4;fill:#FFFFFF;" cx="166.32" cy="309.73" rx="15.21" ry="3.85"/>
				</g>
				<g>
					<path style="fill:#407BFF;" d="M153.06,309.02c0,0.13,0.04,0.28,0.13,0.38c1.02-1.25,6.57-1.98,13.21-1.7
						c6.66,0.28,12.13,1.49,13.02,2.82c0.09-0.1,0.16-0.24,0.16-0.37c0.06-1.44-5.82-2.88-13.15-3.19
						C159.13,306.64,153.12,307.58,153.06,309.02z"/>
					<path style="opacity:0.4;fill:#407BFF;" d="M153.06,309.02c0,0.13,0.04,0.28,0.13,0.38c1.02-1.25,6.57-1.98,13.21-1.7
						c6.66,0.28,12.13,1.49,13.02,2.82c0.09-0.1,0.16-0.24,0.16-0.37c0.06-1.44-5.82-2.88-13.15-3.19
						C159.13,306.64,153.12,307.58,153.06,309.02z"/>
				</g>
				<g>
					<path style="opacity:0.4;fill:#407BFF;" d="M153.19,309.4c0.91,1.33,6.38,2.53,13.02,2.82c6.66,0.28,12.21-0.45,13.21-1.7
						c-0.89-1.33-6.36-2.53-13.02-2.82C159.76,307.42,154.21,308.15,153.19,309.4z"/>
				</g>
			</g>
			<g>
				<g>
					
						<ellipse transform="matrix(-0.9729 -0.2314 0.2314 -0.9729 280.7526 658.3281)" style="fill:#407BFF;" cx="178.98" cy="312.7" rx="15.21" ry="3.85"/>
					
						<rect x="177.5" y="295.62" transform="matrix(0.2314 -0.9729 0.9729 0.2314 -164.49 413.4465)" style="fill:#407BFF;" width="3.85" height="30.42"/>
				</g>
				<g>
					
						<ellipse transform="matrix(-0.9729 -0.2314 0.2314 -0.9729 283.3795 651.1395)" style="fill:#407BFF;" cx="179.87" cy="308.95" rx="15.21" ry="3.85"/>
					
						<ellipse transform="matrix(-0.9729 -0.2314 0.2314 -0.9729 283.3795 651.1395)" style="opacity:0.4;fill:#FFFFFF;" cx="179.87" cy="308.95" rx="15.21" ry="3.85"/>
				</g>
				<g>
					<path style="fill:#407BFF;" d="M166.99,305.74c-0.03,0.12-0.01,0.28,0.06,0.4c1.23-1.03,6.83-0.7,13.29,0.84
						c6.48,1.54,11.63,3.76,12.25,5.24c0.11-0.08,0.2-0.21,0.23-0.33c0.33-1.4-5.17-3.94-12.3-5.63
						C173.39,304.55,167.32,304.34,166.99,305.74z"/>
					<path style="opacity:0.4;fill:#407BFF;" d="M166.99,305.74c-0.03,0.12-0.01,0.28,0.06,0.4c1.23-1.03,6.83-0.7,13.29,0.84
						c6.48,1.54,11.63,3.76,12.25,5.24c0.11-0.08,0.2-0.21,0.23-0.33c0.33-1.4-5.17-3.94-12.3-5.63
						C173.39,304.55,167.32,304.34,166.99,305.74z"/>
				</g>
				<g>
					<path style="opacity:0.4;fill:#407BFF;" d="M167.04,306.13c0.64,1.48,5.78,3.7,12.25,5.24c6.48,1.54,12.08,1.88,13.29,0.84
						c-0.62-1.48-5.77-3.7-12.25-5.24C173.87,305.43,168.28,305.1,167.04,306.13z"/>
				</g>
			</g>
		</g>
		<g>
			<g>
				<g>
					<g>
						<circle style="fill:#407BFF;" cx="202.75" cy="270.39" r="13.7"/>
					</g>
					<circle style="fill:#407BFF;" cx="204.4" cy="270.39" r="13.7"/>
					<circle style="opacity:0.5;fill:#FFFFFF;" cx="204.4" cy="270.39" r="13.7"/>
					<circle style="fill:#407BFF;" cx="204.4" cy="270.39" r="10.26"/>
				</g>
			</g>
			<path style="opacity:0.3;fill:#FFFFFF;" d="M208.54,273.77c-0.85,0.88-1.9,1.3-3.2,1.3c-1.98,0-3.63-1.09-4.29-2.79h5.52v-1.18
				h-5.81c-0.02-0.17-0.02-0.35-0.02-0.54c0-0.18,0.01-0.37,0.02-0.54h5.81v-1.18h-5.52c0.66-1.71,2.31-2.79,4.29-2.79
				c1.3,0,2.35,0.42,3.2,1.29l0.16,0.16l1.11-1.09l-0.15-0.17c-1.06-1.14-2.57-1.74-4.39-1.74c-2.87,0-5.25,1.73-5.98,4.33h-1.95
				v1.18h1.74c-0.01,0.17-0.02,0.35-0.02,0.54s0.01,0.36,0.02,0.54h-1.74v1.18h1.95c0.73,2.6,3.11,4.33,5.98,4.33
				c1.81,0,3.32-0.61,4.39-1.76l0.15-0.16l-1.11-1.09L208.54,273.77z"/>
		</g>
		<g>
			<g>
				<g>
					
						<ellipse transform="matrix(0.9994 0.0359 -0.0359 0.9994 11.5822 -13.4648)" style="fill:#407BFF;" cx="381.13" cy="316.13" rx="15.21" ry="3.85"/>
					
						<rect x="379.27" y="298.99" transform="matrix(0.0357 -0.9994 0.9994 0.0357 53.5731 683.9274)" style="fill:#407BFF;" width="3.85" height="30.42"/>
				</g>
				<g>
					
						<ellipse transform="matrix(0.9994 0.0359 -0.0359 0.9994 11.4442 -13.4722)" style="fill:#407BFF;" cx="381.27" cy="312.28" rx="15.21" ry="3.85"/>
					
						<ellipse transform="matrix(0.9994 0.0359 -0.0359 0.9994 11.4442 -13.4722)" style="opacity:0.4;fill:#FFFFFF;" cx="381.27" cy="312.28" rx="15.21" ry="3.85"/>
				</g>
				<g>
					<path style="fill:#407BFF;" d="M394.54,312.6c0,0.13-0.06,0.27-0.16,0.37c-0.92-1.33-6.4-2.49-13.04-2.73
						c-6.66-0.24-12.21,0.53-13.2,1.79c-0.09-0.1-0.14-0.25-0.13-0.38c0.05-1.44,6.03-2.42,13.36-2.16
						C388.68,309.76,394.59,311.17,394.54,312.6z"/>
					<path style="opacity:0.4;fill:#407BFF;" d="M394.54,312.6c0,0.13-0.06,0.27-0.16,0.37c-0.92-1.33-6.4-2.49-13.04-2.73
						c-6.66-0.24-12.21,0.53-13.2,1.79c-0.09-0.1-0.14-0.25-0.13-0.38c0.05-1.44,6.03-2.42,13.36-2.16
						C388.68,309.76,394.59,311.17,394.54,312.6z"/>
				</g>
				<g>
					<path style="opacity:0.4;fill:#407BFF;" d="M394.38,312.97c-1.01,1.26-6.56,2.03-13.2,1.79c-6.66-0.24-12.14-1.41-13.04-2.73
						c0.99-1.26,6.54-2.03,13.2-1.79C387.98,310.48,393.46,311.65,394.38,312.97z"/>
				</g>
			</g>
			<g>
				<g>
					
						<ellipse transform="matrix(0.9994 0.0359 -0.0359 0.9994 11.3851 -13.5988)" style="fill:#407BFF;" cx="384.77" cy="310.57" rx="15.21" ry="3.85"/>
					
						<rect x="382.91" y="293.43" transform="matrix(0.036 -0.9994 0.9994 0.036 62.5446 682.1207)" style="fill:#407BFF;" width="3.85" height="30.42"/>
				</g>
				<g>
					
						<ellipse transform="matrix(0.9994 0.0359 -0.0359 0.9994 11.2471 -13.6063)" style="fill:#407BFF;" cx="384.91" cy="306.72" rx="15.21" ry="3.85"/>
					
						<ellipse transform="matrix(0.9994 0.0359 -0.0359 0.9994 11.2471 -13.6063)" style="opacity:0.4;fill:#FFFFFF;" cx="384.91" cy="306.72" rx="15.21" ry="3.85"/>
				</g>
				<g>
					<path style="fill:#407BFF;" d="M398.18,307.04c0,0.13-0.06,0.27-0.16,0.37c-0.92-1.33-6.4-2.49-13.04-2.73
						c-6.66-0.24-12.21,0.53-13.2,1.79c-0.09-0.1-0.14-0.25-0.13-0.38c0.05-1.44,6.03-2.42,13.36-2.16
						C392.32,304.2,398.23,305.6,398.18,307.04z"/>
					<path style="opacity:0.4;fill:#407BFF;" d="M398.18,307.04c0,0.13-0.06,0.27-0.16,0.37c-0.92-1.33-6.4-2.49-13.04-2.73
						c-6.66-0.24-12.21,0.53-13.2,1.79c-0.09-0.1-0.14-0.25-0.13-0.38c0.05-1.44,6.03-2.42,13.36-2.16
						C392.32,304.2,398.23,305.6,398.18,307.04z"/>
				</g>
				<g>
					<path style="opacity:0.4;fill:#407BFF;" d="M398.02,307.41c-1.01,1.26-6.56,2.03-13.2,1.79c-6.66-0.24-12.14-1.41-13.04-2.73
						c0.99-1.26,6.54-2.03,13.2-1.79C391.62,304.92,397.1,306.09,398.02,307.41z"/>
				</g>
			</g>
			<g>
				<g>
					
						<ellipse transform="matrix(0.9994 0.0359 -0.0359 0.9994 11.1332 -13.6085)" style="fill:#407BFF;" cx="384.9" cy="303.53" rx="15.21" ry="3.85"/>
					
						<rect x="383.05" y="286.4" transform="matrix(0.0357 -0.9994 0.9994 0.0357 69.7951 675.5559)" style="fill:#407BFF;" width="3.85" height="30.42"/>
				</g>
				<g>
					
						<ellipse transform="matrix(0.9994 0.0358 -0.0358 0.9994 10.985 -13.6037)" style="fill:#407BFF;" cx="385.04" cy="299.68" rx="15.21" ry="3.85"/>
					
						<ellipse transform="matrix(0.9994 0.0358 -0.0358 0.9994 10.985 -13.6037)" style="opacity:0.4;fill:#FFFFFF;" cx="385.04" cy="299.68" rx="15.21" ry="3.85"/>
				</g>
				<g>
					<path style="fill:#407BFF;" d="M398.31,300.01c0,0.12-0.06,0.27-0.16,0.37c-0.92-1.33-6.4-2.49-13.04-2.73
						c-6.66-0.24-12.21,0.53-13.2,1.79c-0.09-0.1-0.14-0.25-0.13-0.38c0.05-1.44,6.03-2.42,13.36-2.16
						C392.46,297.17,398.37,298.57,398.31,300.01z"/>
					<path style="opacity:0.4;fill:#407BFF;" d="M398.31,300.01c0,0.12-0.06,0.27-0.16,0.37c-0.92-1.33-6.4-2.49-13.04-2.73
						c-6.66-0.24-12.21,0.53-13.2,1.79c-0.09-0.1-0.14-0.25-0.13-0.38c0.05-1.44,6.03-2.42,13.36-2.16
						C392.46,297.17,398.37,298.57,398.31,300.01z"/>
				</g>
				<g>
					<path style="opacity:0.4;fill:#407BFF;" d="M398.16,300.38c-1.01,1.26-6.56,2.03-13.2,1.79c-6.66-0.24-12.14-1.41-13.04-2.73
						c0.99-1.26,6.54-2.03,13.2-1.79C391.76,297.89,397.24,299.05,398.16,300.38z"/>
				</g>
			</g>
			<g>
				<g>
					
						<ellipse transform="matrix(0.9994 0.0359 -0.0359 0.9994 10.9359 -13.7423)" style="fill:#407BFF;" cx="388.54" cy="297.97" rx="15.21" ry="3.85"/>
					
						<rect x="386.69" y="280.84" transform="matrix(0.0359 -0.9994 0.9994 0.0359 78.8134 673.7917)" style="fill:#407BFF;" width="3.85" height="30.42"/>
				</g>
				<g>
					
						<ellipse transform="matrix(0.9994 0.0358 -0.0358 0.9994 10.7881 -13.7376)" style="fill:#407BFF;" cx="388.68" cy="294.12" rx="15.21" ry="3.85"/>
					
						<ellipse transform="matrix(0.9994 0.0358 -0.0358 0.9994 10.7881 -13.7376)" style="opacity:0.4;fill:#FFFFFF;" cx="388.68" cy="294.12" rx="15.21" ry="3.85"/>
				</g>
				<g>
					<path style="fill:#407BFF;" d="M401.95,294.45c0,0.12-0.06,0.27-0.16,0.37c-0.92-1.33-6.4-2.49-13.04-2.73
						c-6.66-0.24-12.21,0.53-13.2,1.79c-0.09-0.1-0.14-0.25-0.13-0.38c0.05-1.44,6.03-2.42,13.36-2.16
						C396.1,291.61,402,293.01,401.95,294.45z"/>
					<path style="opacity:0.4;fill:#407BFF;" d="M401.95,294.45c0,0.12-0.06,0.27-0.16,0.37c-0.92-1.33-6.4-2.49-13.04-2.73
						c-6.66-0.24-12.21,0.53-13.2,1.79c-0.09-0.1-0.14-0.25-0.13-0.38c0.05-1.44,6.03-2.42,13.36-2.16
						C396.1,291.61,402,293.01,401.95,294.45z"/>
				</g>
				<g>
					<path style="opacity:0.4;fill:#407BFF;" d="M401.79,294.82c-1.01,1.26-6.56,2.03-13.2,1.79c-6.66-0.24-12.14-1.4-13.04-2.73
						c0.99-1.26,6.54-2.03,13.2-1.79C395.4,292.33,400.88,293.49,401.79,294.82z"/>
				</g>
			</g>
		</g>
		<g>
			<g>
				<g>
					
						<ellipse transform="matrix(-0.9991 -0.0424 0.0424 -0.9991 582.8757 638.4617)" style="fill:#407BFF;" cx="298.22" cy="313.04" rx="15.21" ry="3.85"/>
					
						<rect x="296.37" y="295.91" transform="matrix(0.0426 -0.9991 0.9991 0.0426 -25.2395 595.8983)" style="fill:#407BFF;" width="3.85" height="30.42"/>
				</g>
				<g>
					
						<ellipse transform="matrix(-0.9991 -0.0424 0.0424 -0.9991 583.3666 630.7725)" style="fill:#407BFF;" cx="298.38" cy="309.19" rx="15.21" ry="3.85"/>
					
						<ellipse transform="matrix(-0.9991 -0.0424 0.0424 -0.9991 583.3666 630.7725)" style="opacity:0.4;fill:#FFFFFF;" cx="298.38" cy="309.19" rx="15.21" ry="3.85"/>
				</g>
				<g>
					<path style="fill:#407BFF;" d="M285.12,308.48c0,0.13,0.04,0.28,0.13,0.38c1.02-1.25,6.57-1.98,13.21-1.7
						c6.66,0.28,12.13,1.49,13.02,2.82c0.09-0.1,0.16-0.24,0.16-0.37c0.06-1.44-5.82-2.88-13.15-3.19
						C291.19,306.1,285.18,307.04,285.12,308.48z"/>
					<path style="opacity:0.4;fill:#407BFF;" d="M285.12,308.48c0,0.13,0.04,0.28,0.13,0.38c1.02-1.25,6.57-1.98,13.21-1.7
						c6.66,0.28,12.13,1.49,13.02,2.82c0.09-0.1,0.16-0.24,0.16-0.37c0.06-1.44-5.82-2.88-13.15-3.19
						C291.19,306.1,285.18,307.04,285.12,308.48z"/>
				</g>
				<g>
					<path style="opacity:0.4;fill:#407BFF;" d="M285.25,308.86c0.91,1.33,6.38,2.53,13.02,2.82c6.66,0.28,12.21-0.45,13.21-1.7
						c-0.89-1.33-6.36-2.53-13.02-2.82C291.82,306.88,286.27,307.61,285.25,308.86z"/>
				</g>
			</g>
			<g>
				<g>
					
						<ellipse transform="matrix(-0.9991 -0.0424 0.0424 -0.9991 576.7407 626.6747)" style="fill:#407BFF;" cx="295.02" cy="307.21" rx="15.21" ry="3.85"/>
					
						<rect x="293.18" y="290.08" transform="matrix(0.0423 -0.9991 0.9991 0.0423 -22.4026 587.2083)" style="fill:#407BFF;" width="3.85" height="30.42"/>
				</g>
				<g>
					
						<ellipse transform="matrix(-0.9991 -0.0424 0.0424 -0.9991 577.2301 618.9859)" style="fill:#407BFF;" cx="295.19" cy="303.37" rx="15.21" ry="3.85"/>
					
						<ellipse transform="matrix(-0.9991 -0.0424 0.0424 -0.9991 577.2301 618.9859)" style="opacity:0.4;fill:#FFFFFF;" cx="295.19" cy="303.37" rx="15.21" ry="3.85"/>
				</g>
				<g>
					<path style="fill:#407BFF;" d="M281.93,302.65c-0.01,0.13,0.04,0.28,0.13,0.38c1.02-1.25,6.57-1.98,13.21-1.7
						c6.66,0.28,12.13,1.49,13.02,2.82c0.09-0.1,0.16-0.24,0.16-0.37c0.06-1.44-5.82-2.88-13.15-3.19
						C287.99,300.28,281.99,301.21,281.93,302.65z"/>
					<path style="opacity:0.4;fill:#407BFF;" d="M281.93,302.65c-0.01,0.13,0.04,0.28,0.13,0.38c1.02-1.25,6.57-1.98,13.21-1.7
						c6.66,0.28,12.13,1.49,13.02,2.82c0.09-0.1,0.16-0.24,0.16-0.37c0.06-1.44-5.82-2.88-13.15-3.19
						C287.99,300.28,281.99,301.21,281.93,302.65z"/>
				</g>
				<g>
					<path style="opacity:0.4;fill:#407BFF;" d="M282.06,303.03c0.91,1.33,6.38,2.53,13.02,2.82c6.66,0.28,12.21-0.45,13.21-1.7
						c-0.89-1.33-6.36-2.53-13.02-2.82C288.63,301.05,283.08,301.78,282.06,303.03z"/>
				</g>
			</g>
			<g>
				<g>
					
						<ellipse transform="matrix(-0.9991 -0.0424 0.0424 -0.9991 577.8752 612.6474)" style="fill:#407BFF;" cx="295.44" cy="300.19" rx="15.21" ry="3.85"/>
					
						<rect x="293.59" y="283.06" transform="matrix(0.0423 -0.9991 0.9991 0.0423 -14.9921 580.8975)" style="fill:#407BFF;" width="3.85" height="30.42"/>
				</g>
				<g>
					
						<ellipse transform="matrix(-0.9991 -0.0424 0.0424 -0.9991 578.3651 604.9589)" style="fill:#407BFF;" cx="295.6" cy="296.34" rx="15.21" ry="3.85"/>
					
						<ellipse transform="matrix(-0.9991 -0.0424 0.0424 -0.9991 578.3651 604.9589)" style="opacity:0.4;fill:#FFFFFF;" cx="295.6" cy="296.34" rx="15.21" ry="3.85"/>
				</g>
				<g>
					<path style="fill:#407BFF;" d="M282.34,295.63c-0.01,0.12,0.04,0.28,0.13,0.38c1.02-1.25,6.57-1.98,13.21-1.7
						c6.66,0.28,12.13,1.49,13.02,2.82c0.09-0.1,0.16-0.24,0.16-0.37c0.06-1.44-5.82-2.88-13.15-3.19
						C288.41,293.25,282.4,294.19,282.34,295.63z"/>
					<path style="opacity:0.4;fill:#407BFF;" d="M282.34,295.63c-0.01,0.12,0.04,0.28,0.13,0.38c1.02-1.25,6.57-1.98,13.21-1.7
						c6.66,0.28,12.13,1.49,13.02,2.82c0.09-0.1,0.16-0.24,0.16-0.37c0.06-1.44-5.82-2.88-13.15-3.19
						C288.41,293.25,282.4,294.19,282.34,295.63z"/>
				</g>
				<g>
					<path style="opacity:0.4;fill:#407BFF;" d="M282.47,296.01c0.91,1.33,6.38,2.53,13.02,2.82c6.66,0.28,12.21-0.45,13.21-1.7
						c-0.89-1.33-6.36-2.53-13.02-2.82C289.04,294.03,283.49,294.76,282.47,296.01z"/>
				</g>
			</g>
			<g>
				<g>
					
						<ellipse transform="matrix(-0.9991 -0.0424 0.0424 -0.9991 571.73 600.8691)" style="fill:#407BFF;" cx="292.24" cy="294.37" rx="15.21" ry="3.85"/>
					
						<rect x="290.4" y="277.23" transform="matrix(0.0423 -0.9991 0.9991 0.0423 -12.2262 572.1257)" style="fill:#407BFF;" width="3.85" height="30.42"/>
				</g>
				<g>
					
						<ellipse transform="matrix(-0.9991 -0.0424 0.0424 -0.9991 572.2194 593.1803)" style="fill:#407BFF;" cx="292.41" cy="290.52" rx="15.21" ry="3.85"/>
					
						<ellipse transform="matrix(-0.9991 -0.0424 0.0424 -0.9991 572.2194 593.1803)" style="opacity:0.4;fill:#FFFFFF;" cx="292.41" cy="290.52" rx="15.21" ry="3.85"/>
				</g>
				<g>
					<path style="fill:#407BFF;" d="M279.15,289.8c-0.01,0.12,0.04,0.28,0.13,0.38c1.02-1.25,6.57-1.98,13.21-1.7
						c6.66,0.28,12.13,1.49,13.02,2.82c0.09-0.1,0.16-0.24,0.16-0.37c0.06-1.44-5.82-2.88-13.15-3.19
						C285.21,287.43,279.21,288.37,279.15,289.8z"/>
					<path style="opacity:0.4;fill:#407BFF;" d="M279.15,289.8c-0.01,0.12,0.04,0.28,0.13,0.38c1.02-1.25,6.57-1.98,13.21-1.7
						c6.66,0.28,12.13,1.49,13.02,2.82c0.09-0.1,0.16-0.24,0.16-0.37c0.06-1.44-5.82-2.88-13.15-3.19
						C285.21,287.43,279.21,288.37,279.15,289.8z"/>
				</g>
				<g>
					<path style="opacity:0.4;fill:#407BFF;" d="M279.28,290.18c0.91,1.33,6.38,2.53,13.02,2.82c6.66,0.28,12.21-0.45,13.21-1.7
						c-0.89-1.33-6.36-2.53-13.02-2.82C285.85,288.2,280.3,288.93,279.28,290.18z"/>
				</g>
			</g>
			<g>
				<g>
					
						<ellipse transform="matrix(-0.9991 -0.0424 0.0424 -0.9991 581.6852 591.2015)" style="fill:#407BFF;" cx="297.12" cy="289.43" rx="15.21" ry="3.85"/>
					
						<rect x="295.27" y="272.29" transform="matrix(0.0425 -0.9991 0.9991 0.0425 -2.6583 572.2283)" style="fill:#407BFF;" width="3.85" height="30.42"/>
				</g>
				<g>
					
						<ellipse transform="matrix(-0.9991 -0.0424 0.0424 -0.9991 582.1759 583.513)" style="fill:#407BFF;" cx="297.28" cy="285.58" rx="15.21" ry="3.85"/>
					
						<ellipse transform="matrix(-0.9991 -0.0424 0.0424 -0.9991 582.1759 583.513)" style="opacity:0.4;fill:#FFFFFF;" cx="297.28" cy="285.58" rx="15.21" ry="3.85"/>
				</g>
				<g>
					<path style="fill:#407BFF;" d="M284.03,284.86c-0.01,0.13,0.04,0.28,0.13,0.38c1.02-1.25,6.57-1.98,13.21-1.7
						c6.66,0.28,12.13,1.49,13.02,2.82c0.1-0.1,0.16-0.24,0.16-0.37c0.06-1.44-5.82-2.88-13.15-3.19
						C290.09,282.49,284.09,283.42,284.03,284.86z"/>
					<path style="opacity:0.4;fill:#407BFF;" d="M284.03,284.86c-0.01,0.13,0.04,0.28,0.13,0.38c1.02-1.25,6.57-1.98,13.21-1.7
						c6.66,0.28,12.13,1.49,13.02,2.82c0.1-0.1,0.16-0.24,0.16-0.37c0.06-1.44-5.82-2.88-13.15-3.19
						C290.09,282.49,284.09,283.42,284.03,284.86z"/>
				</g>
				<g>
					<path style="opacity:0.4;fill:#407BFF;" d="M284.16,285.24c0.91,1.33,6.38,2.53,13.02,2.82c6.66,0.28,12.21-0.45,13.21-1.7
						c-0.89-1.33-6.36-2.53-13.02-2.82C290.73,283.26,285.17,283.99,284.16,285.24z"/>
				</g>
			</g>
			<g>
				<g>
					
						<ellipse transform="matrix(-0.9991 -0.0424 0.0424 -0.9991 575.5507 579.4151)" style="fill:#407BFF;" cx="293.93" cy="283.6" rx="15.21" ry="3.85"/>
					
						<rect x="292.08" y="266.46" transform="matrix(0.0423 -0.9991 0.9991 0.0423 0.1431 563.495)" style="fill:#407BFF;" width="3.85" height="30.42"/>
				</g>
				<g>
					
						<ellipse transform="matrix(-0.9991 -0.0424 0.0424 -0.9991 576.0402 571.7263)" style="fill:#407BFF;" cx="294.09" cy="279.75" rx="15.21" ry="3.85"/>
					
						<ellipse transform="matrix(-0.9991 -0.0424 0.0424 -0.9991 576.0402 571.7263)" style="opacity:0.4;fill:#FFFFFF;" cx="294.09" cy="279.75" rx="15.21" ry="3.85"/>
				</g>
				<g>
					<path style="fill:#407BFF;" d="M280.83,279.04c0,0.13,0.04,0.28,0.13,0.38c1.02-1.25,6.57-1.98,13.21-1.7
						c6.66,0.28,12.13,1.48,13.02,2.82c0.09-0.1,0.16-0.24,0.16-0.37c0.06-1.44-5.82-2.88-13.15-3.19
						C286.9,276.66,280.89,277.6,280.83,279.04z"/>
					<path style="opacity:0.4;fill:#407BFF;" d="M280.83,279.04c0,0.13,0.04,0.28,0.13,0.38c1.02-1.25,6.57-1.98,13.21-1.7
						c6.66,0.28,12.13,1.48,13.02,2.82c0.09-0.1,0.16-0.24,0.16-0.37c0.06-1.44-5.82-2.88-13.15-3.19
						C286.9,276.66,280.89,277.6,280.83,279.04z"/>
				</g>
				<g>
					<path style="opacity:0.4;fill:#407BFF;" d="M280.96,279.42c0.91,1.33,6.38,2.53,13.02,2.82c6.66,0.28,12.21-0.45,13.21-1.7
						c-0.89-1.33-6.36-2.53-13.02-2.82C287.53,277.43,281.98,278.17,280.96,279.42z"/>
				</g>
			</g>
		</g>
		<g>
			<g>
				<g>
					
						<ellipse transform="matrix(0.9991 -0.0424 0.0424 0.9991 -11.5936 12.8621)" style="fill:#407BFF;" cx="297.11" cy="279.46" rx="15.21" ry="3.85"/>
					
						<rect x="295.1" y="262.33" transform="matrix(-0.0423 -0.9991 0.9991 -0.0423 32.3099 586.0404)" style="fill:#407BFF;" width="3.85" height="30.42"/>
				</g>
				<g>
					
						<ellipse transform="matrix(0.9991 -0.0424 0.0424 0.9991 -11.4305 12.852)" style="fill:#407BFF;" cx="296.94" cy="275.61" rx="15.21" ry="3.85"/>
					
						<ellipse transform="matrix(0.9991 -0.0424 0.0424 0.9991 -11.4305 12.852)" style="opacity:0.4;fill:#FFFFFF;" cx="296.94" cy="275.61" rx="15.21" ry="3.85"/>
				</g>
				<g>
					<path style="fill:#407BFF;" d="M310.2,274.9c0.01,0.12-0.04,0.28-0.13,0.38c-1.02-1.25-6.57-1.98-13.21-1.7
						c-6.66,0.28-12.13,1.49-13.02,2.82c-0.09-0.1-0.16-0.24-0.16-0.37c-0.06-1.44,5.82-2.88,13.15-3.19
						C304.14,272.52,310.14,273.46,310.2,274.9z"/>
					<path style="opacity:0.4;fill:#407BFF;" d="M310.2,274.9c0.01,0.12-0.04,0.28-0.13,0.38c-1.02-1.25-6.57-1.98-13.21-1.7
						c-6.66,0.28-12.13,1.49-13.02,2.82c-0.09-0.1-0.16-0.24-0.16-0.37c-0.06-1.44,5.82-2.88,13.15-3.19
						C304.14,272.52,310.14,273.46,310.2,274.9z"/>
				</g>
				<g>
					<path style="opacity:0.4;fill:#407BFF;" d="M310.07,275.28c-0.91,1.33-6.38,2.53-13.02,2.82c-6.66,0.28-12.21-0.45-13.21-1.7
						c0.89-1.33,6.36-2.53,13.02-2.82C303.5,273.29,309.05,274.03,310.07,275.28z"/>
				</g>
			</g>
			<g>
				<g>
					
						<ellipse transform="matrix(0.9991 -0.0424 0.0424 0.9991 -11.3434 12.9924)" style="fill:#407BFF;" cx="300.3" cy="273.63" rx="15.21" ry="3.85"/>
					
						<rect x="298.29" y="256.5" transform="matrix(-0.0425 -0.9991 0.9991 -0.0425 41.5005 583.1886)" style="fill:#407BFF;" width="3.85" height="30.42"/>
				</g>
				<g>
					
						<ellipse transform="matrix(0.9991 -0.0424 0.0424 0.9991 -11.1803 12.9822)" style="fill:#407BFF;" cx="300.14" cy="269.78" rx="15.21" ry="3.85"/>
					
						<ellipse transform="matrix(0.9991 -0.0424 0.0424 0.9991 -11.1803 12.9822)" style="opacity:0.4;fill:#FFFFFF;" cx="300.14" cy="269.78" rx="15.21" ry="3.85"/>
				</g>
				<g>
					<path style="fill:#407BFF;" d="M313.39,269.07c0.01,0.12-0.04,0.27-0.13,0.38c-1.02-1.25-6.57-1.98-13.21-1.7
						c-6.66,0.28-12.13,1.49-13.02,2.82c-0.09-0.1-0.16-0.24-0.16-0.37c-0.06-1.44,5.82-2.88,13.15-3.19
						C307.33,266.69,313.33,267.63,313.39,269.07z"/>
					<path style="opacity:0.4;fill:#407BFF;" d="M313.39,269.07c0.01,0.12-0.04,0.27-0.13,0.38c-1.02-1.25-6.57-1.98-13.21-1.7
						c-6.66,0.28-12.13,1.49-13.02,2.82c-0.09-0.1-0.16-0.24-0.16-0.37c-0.06-1.44,5.82-2.88,13.15-3.19
						C307.33,266.69,313.33,267.63,313.39,269.07z"/>
				</g>
				<g>
					<path style="opacity:0.4;fill:#407BFF;" d="M313.26,269.45c-0.91,1.33-6.38,2.53-13.02,2.82c-6.66,0.28-12.21-0.45-13.21-1.7
						c0.89-1.33,6.36-2.53,13.02-2.82C306.69,267.47,312.25,268.2,313.26,269.45z"/>
				</g>
			</g>
			<g>
				<g>
					
						<ellipse transform="matrix(0.9991 -0.0424 0.0424 0.9991 -11.0376 12.9586)" style="fill:#407BFF;" cx="299.89" cy="266.61" rx="15.21" ry="3.85"/>
					
						<rect x="297.88" y="249.48" transform="matrix(-0.0423 -0.9991 0.9991 -0.0423 48.0445 575.4243)" style="fill:#407BFF;" width="3.85" height="30.42"/>
				</g>
				<g>
					
						<ellipse transform="matrix(0.9991 -0.0424 0.0424 0.9991 -10.8745 12.9482)" style="fill:#407BFF;" cx="299.72" cy="262.76" rx="15.21" ry="3.85"/>
					
						<ellipse transform="matrix(0.9991 -0.0424 0.0424 0.9991 -10.8745 12.9482)" style="opacity:0.4;fill:#FFFFFF;" cx="299.72" cy="262.76" rx="15.21" ry="3.85"/>
				</g>
				<g>
					<path style="fill:#407BFF;" d="M312.98,262.05c0,0.13-0.04,0.28-0.13,0.38c-1.02-1.25-6.57-1.98-13.21-1.7
						c-6.66,0.28-12.13,1.49-13.02,2.82c-0.09-0.1-0.16-0.24-0.16-0.37c-0.06-1.44,5.82-2.88,13.15-3.19
						C306.92,259.67,312.92,260.61,312.98,262.05z"/>
					<path style="opacity:0.4;fill:#407BFF;" d="M312.98,262.05c0,0.13-0.04,0.28-0.13,0.38c-1.02-1.25-6.57-1.98-13.21-1.7
						c-6.66,0.28-12.13,1.49-13.02,2.82c-0.09-0.1-0.16-0.24-0.16-0.37c-0.06-1.44,5.82-2.88,13.15-3.19
						C306.92,259.67,312.92,260.61,312.98,262.05z"/>
				</g>
				<g>
					<path style="opacity:0.4;fill:#407BFF;" d="M312.85,262.43c-0.91,1.33-6.38,2.53-13.02,2.82c-6.66,0.28-12.21-0.45-13.21-1.7
						c0.89-1.33,6.36-2.53,13.02-2.82C306.28,260.44,311.83,261.18,312.85,262.43z"/>
				</g>
			</g>
			<g>
				<g>
					
						<ellipse transform="matrix(0.9991 -0.0424 0.0424 0.9991 -10.7955 13.0988)" style="fill:#407BFF;" cx="303.08" cy="260.78" rx="15.21" ry="3.85"/>
					
						<rect x="301.07" y="243.65" transform="matrix(-0.0425 -0.9991 0.9991 -0.0425 57.2359 572.5703)" style="fill:#407BFF;" width="3.85" height="30.42"/>
				</g>
				<g>
					
						<ellipse transform="matrix(0.9991 -0.0424 0.0424 0.9991 -10.6244 13.0784)" style="fill:#407BFF;" cx="302.92" cy="256.93" rx="15.21" ry="3.85"/>
					
						<ellipse transform="matrix(0.9991 -0.0424 0.0424 0.9991 -10.6244 13.0784)" style="opacity:0.4;fill:#FFFFFF;" cx="302.92" cy="256.93" rx="15.21" ry="3.85"/>
				</g>
				<g>
					<path style="fill:#407BFF;" d="M316.17,256.22c0.01,0.12-0.04,0.28-0.13,0.38c-1.02-1.25-6.57-1.98-13.21-1.7
						c-6.66,0.28-12.13,1.49-13.02,2.82c-0.09-0.1-0.16-0.24-0.16-0.37c-0.06-1.44,5.82-2.88,13.15-3.19
						C310.11,253.84,316.11,254.78,316.17,256.22z"/>
					<path style="opacity:0.4;fill:#407BFF;" d="M316.17,256.22c0.01,0.12-0.04,0.28-0.13,0.38c-1.02-1.25-6.57-1.98-13.21-1.7
						c-6.66,0.28-12.13,1.49-13.02,2.82c-0.09-0.1-0.16-0.24-0.16-0.37c-0.06-1.44,5.82-2.88,13.15-3.19
						C310.11,253.84,316.11,254.78,316.17,256.22z"/>
				</g>
				<g>
					<path style="opacity:0.4;fill:#407BFF;" d="M316.04,256.6c-0.91,1.33-6.38,2.53-13.02,2.82c-6.66,0.28-12.21-0.45-13.21-1.7
						c0.89-1.33,6.36-2.53,13.02-2.82C309.47,254.62,315.03,255.35,316.04,256.6z"/>
				</g>
			</g>
			<g>
				<g>
					
						<ellipse transform="matrix(0.9991 -0.0424 0.0424 0.9991 -10.5901 12.8872)" style="fill:#407BFF;" cx="298.2" cy="255.84" rx="15.21" ry="3.85"/>
					
						<rect x="296.19" y="238.71" transform="matrix(-0.0423 -0.9991 0.9991 -0.0423 57.0493 562.5196)" style="fill:#407BFF;" width="3.85" height="30.42"/>
				</g>
				<g>
					
						<ellipse transform="matrix(0.9991 -0.0424 0.0424 0.9991 -10.427 12.877)" style="fill:#407BFF;" cx="298.04" cy="251.99" rx="15.21" ry="3.85"/>
					
						<ellipse transform="matrix(0.9991 -0.0424 0.0424 0.9991 -10.427 12.877)" style="opacity:0.4;fill:#FFFFFF;" cx="298.04" cy="251.99" rx="15.21" ry="3.85"/>
				</g>
				<g>
					<path style="fill:#407BFF;" d="M311.3,251.28c0.01,0.12-0.04,0.28-0.13,0.38c-1.02-1.25-6.57-1.98-13.21-1.7
						c-6.66,0.28-12.13,1.49-13.02,2.82c-0.09-0.1-0.16-0.24-0.16-0.37c-0.06-1.44,5.82-2.88,13.15-3.19
						C305.23,248.9,311.23,249.84,311.3,251.28z"/>
					<path style="opacity:0.4;fill:#407BFF;" d="M311.3,251.28c0.01,0.12-0.04,0.28-0.13,0.38c-1.02-1.25-6.57-1.98-13.21-1.7
						c-6.66,0.28-12.13,1.49-13.02,2.82c-0.09-0.1-0.16-0.24-0.16-0.37c-0.06-1.44,5.82-2.88,13.15-3.19
						C305.23,248.9,311.23,249.84,311.3,251.28z"/>
				</g>
				<g>
					<path style="opacity:0.4;fill:#407BFF;" d="M311.17,251.66c-0.91,1.33-6.38,2.53-13.02,2.82c-6.66,0.28-12.21-0.45-13.21-1.7
						c0.89-1.33,6.36-2.53,13.02-2.82C304.59,249.68,310.15,250.41,311.17,251.66z"/>
				</g>
			</g>
			<g>
				<g>
					
						<ellipse transform="matrix(0.9991 -0.0424 0.0424 0.9991 -10.34 13.0177)" style="fill:#407BFF;" cx="301.4" cy="250.01" rx="15.21" ry="3.85"/>
					
						<rect x="299.39" y="232.88" transform="matrix(-0.0423 -0.9991 0.9991 -0.0423 66.2005 559.635)" style="fill:#407BFF;" width="3.85" height="30.42"/>
				</g>
				<g>
					
						<ellipse transform="matrix(0.9991 -0.0424 0.0424 0.9991 -10.1769 13.0075)" style="fill:#407BFF;" cx="301.23" cy="246.17" rx="15.21" ry="3.85"/>
					
						<ellipse transform="matrix(0.9991 -0.0424 0.0424 0.9991 -10.1769 13.0075)" style="opacity:0.4;fill:#FFFFFF;" cx="301.23" cy="246.17" rx="15.21" ry="3.85"/>
				</g>
				<g>
					<path style="fill:#407BFF;" d="M314.49,245.45c0.01,0.12-0.04,0.27-0.13,0.38c-1.02-1.25-6.57-1.98-13.21-1.7
						c-6.66,0.28-12.13,1.49-13.02,2.82c-0.09-0.1-0.16-0.24-0.16-0.37c-0.06-1.44,5.82-2.88,13.15-3.19
						C308.43,243.08,314.43,244.01,314.49,245.45z"/>
					<path style="opacity:0.4;fill:#407BFF;" d="M314.49,245.45c0.01,0.12-0.04,0.27-0.13,0.38c-1.02-1.25-6.57-1.98-13.21-1.7
						c-6.66,0.28-12.13,1.49-13.02,2.82c-0.09-0.1-0.16-0.24-0.16-0.37c-0.06-1.44,5.82-2.88,13.15-3.19
						C308.43,243.08,314.43,244.01,314.49,245.45z"/>
				</g>
				<g>
					<path style="opacity:0.4;fill:#407BFF;" d="M314.36,245.83c-0.91,1.33-6.38,2.53-13.02,2.82c-6.66,0.28-12.21-0.45-13.21-1.7
						c0.89-1.33,6.36-2.53,13.02-2.82C307.79,243.85,313.34,244.58,314.36,245.83z"/>
				</g>
			</g>
		</g>
		<g>
			<g>
				<circle style="fill:#407BFF;" cx="299.14" cy="232.16" r="13.7"/>
			</g>
			<circle style="fill:#407BFF;" cx="300.63" cy="232.84" r="13.7"/>
			<circle style="opacity:0.4;fill:#FFFFFF;" cx="300.63" cy="232.84" r="13.7"/>
			<circle style="fill:#407BFF;" cx="300.63" cy="232.84" r="10.26"/>
			<path style="opacity:0.3;fill:#FFFFFF;" d="M305.38,235.88c-0.14-0.6-0.47-1.14-0.98-1.6c0.55-0.03,1.04-0.19,1.47-0.48
				c0.43-0.29,0.76-0.69,0.99-1.21c0.38-0.84,0.34-1.67-0.12-2.48c-0.35-0.6-0.92-1.14-1.72-1.62l0.35-0.76l-1.18-0.54l-0.32,0.71
				l-1.18-0.54l0.32-0.71l-1.18-0.54l-0.32,0.71l-2.56-1.16l-4.8,10.57l2.56,1.16l-0.34,0.75l1.18,0.54l0.34-0.75l1.18,0.54
				l-0.34,0.75l1.18,0.54l0.35-0.78c1.1,0.42,2.05,0.57,2.84,0.43c0.95-0.17,1.63-0.72,2.05-1.65
				C305.44,237.11,305.52,236.48,305.38,235.88z M300.54,228.62l2.43,1.11c0.6,0.27,1.01,0.59,1.23,0.93
				c0.22,0.35,0.23,0.73,0.05,1.14s-0.49,0.65-0.89,0.72c-0.41,0.07-0.91-0.03-1.52-0.31l-2.43-1.1L300.54,228.62z M301.87,237.15
				c-0.42,0.06-0.96-0.05-1.6-0.35l-2.85-1.3l1.19-2.61l2.85,1.3c1.3,0.59,1.75,1.32,1.35,2.2
				C302.6,236.83,302.29,237.08,301.87,237.15z"/>
		</g>
		<g>
			<g>
				
					<ellipse transform="matrix(0.97 0.2429 -0.2429 0.97 87.4641 -92.998)" style="fill:#407BFF;" cx="420.85" cy="308.18" rx="9.18" ry="2.33"/>
				
					<rect x="419.97" y="297.86" transform="matrix(0.243 -0.97 0.97 0.243 20.9413 640.929)" style="fill:#407BFF;" width="2.33" height="18.37"/>
			</g>
			<g>
				
					<ellipse transform="matrix(0.97 0.2429 -0.2429 0.97 86.9328 -93.2029)" style="fill:#407BFF;" cx="421.41" cy="305.92" rx="9.18" ry="2.33"/>
				
					<ellipse transform="matrix(0.97 0.2429 -0.2429 0.97 86.9328 -93.2029)" style="opacity:0.4;fill:#FFFFFF;" cx="421.41" cy="305.92" rx="9.18" ry="2.33"/>
			</g>
			<g>
				<path style="fill:#407BFF;" d="M429.21,307.78c-0.02,0.07-0.07,0.15-0.14,0.2c-0.37-0.9-3.47-2.28-7.36-3.25
					c-3.9-0.98-7.28-1.22-8.02-0.6c-0.04-0.07-0.05-0.17-0.03-0.24c0.21-0.84,3.86-0.67,8.16,0.41
					C426.11,305.36,429.42,306.93,429.21,307.78z"/>
				<path style="opacity:0.4;fill:#407BFF;" d="M429.21,307.78c-0.02,0.07-0.07,0.15-0.14,0.2c-0.37-0.9-3.47-2.28-7.36-3.25
					c-3.9-0.98-7.28-1.22-8.02-0.6c-0.04-0.07-0.05-0.17-0.03-0.24c0.21-0.84,3.86-0.67,8.16,0.41
					C426.11,305.36,429.42,306.93,429.21,307.78z"/>
			</g>
			<g>
				<path style="opacity:0.4;fill:#407BFF;" d="M429.07,307.98c-0.75,0.62-4.13,0.37-8.02-0.6c-3.9-0.98-7-2.36-7.36-3.25
					c0.74-0.62,4.12-0.38,8.02,0.6C425.6,305.7,428.7,307.08,429.07,307.98z"/>
			</g>
		</g>
		<g>
			<g>
				
					<ellipse transform="matrix(0.9991 -0.0424 0.0424 0.9991 -12.9734 18.4906)" style="fill:#407BFF;" cx="429.14" cy="314.89" rx="9.18" ry="2.33"/>
				
					<rect x="427.93" y="304.55" transform="matrix(-0.0426 -0.9991 0.9991 -0.0426 133.9294 755.8004)" style="fill:#407BFF;" width="2.33" height="18.37"/>
			</g>
			<g>
				
					<ellipse transform="matrix(0.9991 -0.0424 0.0424 0.9991 -12.8746 18.4838)" style="fill:#407BFF;" cx="429.04" cy="312.57" rx="9.18" ry="2.33"/>
				
					<ellipse transform="matrix(0.9991 -0.0424 0.0424 0.9991 -12.8746 18.4838)" style="opacity:0.4;fill:#FFFFFF;" cx="429.04" cy="312.57" rx="9.18" ry="2.33"/>
			</g>
			<g>
				<path style="fill:#407BFF;" d="M437.05,312.14c0,0.08-0.03,0.17-0.08,0.23c-0.61-0.75-3.97-1.2-7.98-1.03
					c-4.02,0.17-7.33,0.9-7.86,1.7c-0.06-0.06-0.09-0.15-0.1-0.22c-0.04-0.87,3.51-1.74,7.94-1.93
					C433.39,310.7,437.01,311.27,437.05,312.14z"/>
				<path style="opacity:0.4;fill:#407BFF;" d="M437.05,312.14c0,0.08-0.03,0.17-0.08,0.23c-0.61-0.75-3.97-1.2-7.98-1.03
					c-4.02,0.17-7.33,0.9-7.86,1.7c-0.06-0.06-0.09-0.15-0.1-0.22c-0.04-0.87,3.51-1.74,7.94-1.93
					C433.39,310.7,437.01,311.27,437.05,312.14z"/>
			</g>
			<g>
				<path style="opacity:0.4;fill:#407BFF;" d="M436.97,312.37c-0.55,0.8-3.85,1.53-7.86,1.7c-4.02,0.17-7.38-0.27-7.98-1.03
					c0.54-0.8,3.84-1.53,7.86-1.7C433,311.17,436.36,311.61,436.97,312.37z"/>
			</g>
		</g>
		<g>
			<g>
				<g>
					<circle style="fill:#407BFF;" cx="417.21" cy="302.46" r="13.7"/>
				</g>
				<circle style="fill:#407BFF;" cx="418.44" cy="303.55" r="13.7"/>
				<circle style="opacity:0.4;fill:#FFFFFF;" cx="418.44" cy="303.55" r="13.7"/>
				<circle style="fill:#407BFF;" cx="418.44" cy="303.55" r="10.26"/>
			</g>
			<g style="opacity:0.3;">
				<path style="fill:#FFFFFF;" d="M420.35,308.18c-1.21,1.96-3.38,2.05-5.64,0.36l-1.28,1.37l-1.27-1.13l1.28-1.37
					c-1.13-1.21-1.92-2.6-2.22-3.74l1.98-1.06c0.32,1.18,0.94,2.3,1.76,3.19l1.97-2.1c-0.93-1.47-1.89-3.17-0.79-4.95
					c1.21-1.96,3.42-2.04,5.69-0.29l1.28-1.37l1.27,1.13l-1.29,1.38c0.84,0.91,1.48,1.94,1.82,2.92l-1.91,1.13
					c-0.28-0.91-0.79-1.75-1.42-2.46l-2.05,2.19C420.47,304.83,421.4,306.49,420.35,308.18z M418.59,301.9l1.68-1.79
					c-0.83-0.48-1.51-0.39-1.87,0.16C418.12,300.73,418.27,301.27,418.59,301.9z M418.05,306.72c0.26-0.43,0.14-0.95-0.19-1.54
					l-1.59,1.71C417.06,307.34,417.71,307.28,418.05,306.72z"/>
			</g>
		</g>
		<g>
			<g>
				<g>
					
						<ellipse transform="matrix(-0.9991 -0.0425 0.0425 -0.9991 502.3618 643.0037)" style="fill:#407BFF;" cx="258.01" cy="316.16" rx="9.18" ry="2.33"/>
					
						<rect x="256.9" y="305.82" transform="matrix(0.0424 -0.9991 0.9991 0.0424 -67.5941 559.4818)" style="fill:#407BFF;" width="2.33" height="18.37"/>
				</g>
				<g>
					
						<ellipse transform="matrix(-0.9991 -0.0424 0.0424 -0.9991 502.675 638.3475)" style="fill:#407BFF;" cx="258.11" cy="313.84" rx="9.18" ry="2.33"/>
					
						<ellipse transform="matrix(-0.9991 -0.0424 0.0424 -0.9991 502.675 638.3475)" style="opacity:0.4;fill:#FFFFFF;" cx="258.11" cy="313.84" rx="9.18" ry="2.33"/>
				</g>
				<g>
					<path style="fill:#407BFF;" d="M250.11,313.41c0,0.08,0.03,0.17,0.08,0.23c0.61-0.75,3.97-1.2,7.98-1.03
						c4.02,0.17,7.33,0.9,7.86,1.7c0.06-0.06,0.09-0.15,0.1-0.22c0.04-0.87-3.51-1.74-7.94-1.93
						C253.77,311.97,250.14,312.54,250.11,313.41z"/>
					<path style="opacity:0.4;fill:#407BFF;" d="M250.11,313.41c0,0.08,0.03,0.17,0.08,0.23c0.61-0.75,3.97-1.2,7.98-1.03
						c4.02,0.17,7.33,0.9,7.86,1.7c0.06-0.06,0.09-0.15,0.1-0.22c0.04-0.87-3.51-1.74-7.94-1.93
						C253.77,311.97,250.14,312.54,250.11,313.41z"/>
				</g>
				<g>
					<path style="opacity:0.4;fill:#407BFF;" d="M250.18,313.64c0.55,0.8,3.85,1.53,7.86,1.7c4.02,0.17,7.38-0.27,7.98-1.03
						c-0.54-0.8-3.84-1.53-7.86-1.7C254.15,312.44,250.8,312.88,250.18,313.64z"/>
				</g>
			</g>
			<g>
				<g>
					
						<ellipse transform="matrix(-0.9991 -0.0424 0.0424 -0.9991 498.6729 635.8743)" style="fill:#407BFF;" cx="256.08" cy="312.65" rx="9.18" ry="2.33"/>
					
						<rect x="254.97" y="302.3" transform="matrix(0.0424 -0.9991 0.9991 0.0424 -65.925 554.1851)" style="fill:#407BFF;" width="2.33" height="18.37"/>
				</g>
				<g>
					
						<ellipse transform="matrix(-0.9991 -0.0424 0.0424 -0.9991 498.9687 631.2302)" style="fill:#407BFF;" cx="256.18" cy="310.32" rx="9.18" ry="2.33"/>
					
						<ellipse transform="matrix(-0.9991 -0.0424 0.0424 -0.9991 498.9687 631.2302)" style="opacity:0.4;fill:#FFFFFF;" cx="256.18" cy="310.32" rx="9.18" ry="2.33"/>
				</g>
				<g>
					<path style="fill:#407BFF;" d="M248.18,309.89c0,0.08,0.03,0.17,0.08,0.23c0.61-0.75,3.97-1.2,7.98-1.03
						c4.02,0.17,7.33,0.9,7.86,1.7c0.06-0.06,0.09-0.15,0.1-0.22c0.04-0.87-3.51-1.74-7.94-1.93
						C251.84,308.46,248.21,309.02,248.18,309.89z"/>
					<path style="opacity:0.4;fill:#407BFF;" d="M248.18,309.89c0,0.08,0.03,0.17,0.08,0.23c0.61-0.75,3.97-1.2,7.98-1.03
						c4.02,0.17,7.33,0.9,7.86,1.7c0.06-0.06,0.09-0.15,0.1-0.22c0.04-0.87-3.51-1.74-7.94-1.93
						C251.84,308.46,248.21,309.02,248.18,309.89z"/>
				</g>
				<g>
					<path style="opacity:0.4;fill:#407BFF;" d="M248.26,310.12c0.55,0.8,3.85,1.53,7.86,1.7c4.02,0.17,7.38-0.27,7.98-1.03
						c-0.54-0.8-3.84-1.53-7.86-1.7C252.22,308.92,248.87,309.37,248.26,310.12z"/>
				</g>
			</g>
			<g>
				<g>
					
						<ellipse transform="matrix(-0.9991 -0.0424 0.0424 -0.9991 499.3526 627.4083)" style="fill:#407BFF;" cx="256.33" cy="308.41" rx="9.18" ry="2.33"/>
					
						<rect x="255.22" y="298.06" transform="matrix(0.0424 -0.9991 0.9991 0.0424 -61.4539 550.3691)" style="fill:#407BFF;" width="2.33" height="18.37"/>
				</g>
				<g>
					
						<ellipse transform="matrix(-0.9991 -0.0425 0.0425 -0.9991 499.6315 622.7781)" style="fill:#407BFF;" cx="256.43" cy="306.08" rx="9.18" ry="2.33"/>
					
						<ellipse transform="matrix(-0.9991 -0.0425 0.0425 -0.9991 499.6315 622.7781)" style="opacity:0.4;fill:#FFFFFF;" cx="256.43" cy="306.08" rx="9.18" ry="2.33"/>
				</g>
				<g>
					<path style="fill:#407BFF;" d="M248.43,305.65c0,0.08,0.03,0.17,0.08,0.23c0.61-0.75,3.97-1.2,7.98-1.03
						c4.02,0.17,7.33,0.9,7.86,1.7c0.06-0.06,0.09-0.15,0.1-0.22c0.04-0.87-3.51-1.74-7.94-1.93
						C252.09,304.21,248.46,304.78,248.43,305.65z"/>
					<path style="opacity:0.4;fill:#407BFF;" d="M248.43,305.65c0,0.08,0.03,0.17,0.08,0.23c0.61-0.75,3.97-1.2,7.98-1.03
						c4.02,0.17,7.33,0.9,7.86,1.7c0.06-0.06,0.09-0.15,0.1-0.22c0.04-0.87-3.51-1.74-7.94-1.93
						C252.09,304.21,248.46,304.78,248.43,305.65z"/>
				</g>
				<g>
					<path style="opacity:0.4;fill:#407BFF;" d="M248.51,305.88c0.55,0.8,3.85,1.53,7.86,1.7c4.02,0.17,7.38-0.27,7.98-1.03
						c-0.54-0.8-3.84-1.53-7.86-1.7C252.47,304.68,249.12,305.13,248.51,305.88z"/>
				</g>
			</g>
			<g>
				<g>
					
						<ellipse transform="matrix(-0.9991 -0.0424 0.0424 -0.9991 495.6471 620.2903)" style="fill:#407BFF;" cx="254.41" cy="304.89" rx="9.18" ry="2.33"/>
					
						<rect x="253.29" y="294.54" transform="matrix(0.0424 -0.9991 0.9991 0.0424 -59.7842 545.0721)" style="fill:#407BFF;" width="2.33" height="18.37"/>
				</g>
				<g>
					
						<ellipse transform="matrix(-0.9991 -0.0425 0.0425 -0.9991 495.9262 615.6599)" style="fill:#407BFF;" cx="254.5" cy="302.56" rx="9.18" ry="2.33"/>
					
						<ellipse transform="matrix(-0.9991 -0.0425 0.0425 -0.9991 495.9262 615.6599)" style="opacity:0.4;fill:#FFFFFF;" cx="254.5" cy="302.56" rx="9.18" ry="2.33"/>
				</g>
				<g>
					<path style="fill:#407BFF;" d="M246.5,302.13c0,0.08,0.03,0.17,0.08,0.23c0.61-0.75,3.97-1.2,7.98-1.03
						c4.02,0.17,7.33,0.9,7.86,1.7c0.06-0.06,0.09-0.15,0.1-0.22c0.04-0.87-3.51-1.74-7.94-1.93
						C250.16,300.7,246.54,301.26,246.5,302.13z"/>
					<path style="opacity:0.4;fill:#407BFF;" d="M246.5,302.13c0,0.08,0.03,0.17,0.08,0.23c0.61-0.75,3.97-1.2,7.98-1.03
						c4.02,0.17,7.33,0.9,7.86,1.7c0.06-0.06,0.09-0.15,0.1-0.22c0.04-0.87-3.51-1.74-7.94-1.93
						C250.16,300.7,246.54,301.26,246.5,302.13z"/>
				</g>
				<g>
					<path style="opacity:0.4;fill:#407BFF;" d="M246.58,302.36c0.55,0.8,3.85,1.53,7.86,1.7c4.02,0.17,7.38-0.27,7.98-1.03
						c-0.54-0.8-3.84-1.53-7.86-1.7C250.55,301.16,247.19,301.61,246.58,302.36z"/>
				</g>
			</g>
			<g>
				<g>
					
						<ellipse transform="matrix(-0.9991 -0.0424 0.0424 -0.9991 501.6588 614.4514)" style="fill:#407BFF;" cx="257.35" cy="301.9" rx="9.18" ry="2.33"/>
					
						<rect x="256.24" y="291.56" transform="matrix(0.0426 -0.9991 0.9991 0.0426 -54.0353 545.0916)" style="fill:#407BFF;" width="2.33" height="18.37"/>
				</g>
				<g>
					
						<ellipse transform="matrix(-0.9991 -0.0424 0.0424 -0.9991 501.9554 609.8088)" style="fill:#407BFF;" cx="257.45" cy="299.58" rx="9.18" ry="2.33"/>
					
						<ellipse transform="matrix(-0.9991 -0.0424 0.0424 -0.9991 501.9554 609.8088)" style="opacity:0.4;fill:#FFFFFF;" cx="257.45" cy="299.58" rx="9.18" ry="2.33"/>
				</g>
				<g>
					<path style="fill:#407BFF;" d="M249.44,299.15c0,0.08,0.03,0.17,0.08,0.23c0.61-0.75,3.97-1.2,7.98-1.03
						c4.02,0.17,7.33,0.9,7.86,1.7c0.06-0.06,0.09-0.15,0.1-0.22c0.04-0.87-3.51-1.74-7.94-1.93
						C253.1,297.71,249.48,298.28,249.44,299.15z"/>
					<path style="opacity:0.4;fill:#407BFF;" d="M249.44,299.15c0,0.08,0.03,0.17,0.08,0.23c0.61-0.75,3.97-1.2,7.98-1.03
						c4.02,0.17,7.33,0.9,7.86,1.7c0.06-0.06,0.09-0.15,0.1-0.22c0.04-0.87-3.51-1.74-7.94-1.93
						C253.1,297.71,249.48,298.28,249.44,299.15z"/>
				</g>
				<g>
					<path style="opacity:0.4;fill:#407BFF;" d="M249.52,299.38c0.55,0.8,3.85,1.53,7.86,1.7c4.02,0.17,7.38-0.27,7.98-1.03
						c-0.54-0.8-3.84-1.53-7.86-1.7C253.49,298.18,250.13,298.62,249.52,299.38z"/>
				</g>
			</g>
			<g>
				<g>
					
						<ellipse transform="matrix(-0.97 0.2429 -0.2429 -0.97 557.0942 557.9899)" style="fill:#407BFF;" cx="244.15" cy="313.34" rx="9.18" ry="2.33"/>
					
						<rect x="242.7" y="303.03" transform="matrix(-0.243 -0.97 0.97 -0.243 0.2784 624.6411)" style="fill:#407BFF;" width="2.33" height="18.37"/>
				</g>
				<g>
					
						<ellipse transform="matrix(-0.9701 0.2429 -0.2429 -0.9701 555.4195 553.6962)" style="fill:#407BFF;" cx="243.58" cy="311.08" rx="9.18" ry="2.33"/>
					
						<ellipse transform="matrix(-0.9701 0.2429 -0.2429 -0.9701 555.4195 553.6962)" style="opacity:0.4;fill:#FFFFFF;" cx="243.58" cy="311.08" rx="9.18" ry="2.33"/>
				</g>
				<g>
					<path style="fill:#407BFF;" d="M235.78,312.94c0.02,0.07,0.07,0.15,0.14,0.2c0.37-0.9,3.47-2.28,7.36-3.25
						c3.9-0.98,7.28-1.22,8.02-0.6c0.04-0.07,0.05-0.17,0.03-0.24c-0.21-0.84-3.86-0.67-8.16,0.4
						C238.89,310.53,235.57,312.1,235.78,312.94z"/>
					<path style="opacity:0.4;fill:#407BFF;" d="M235.78,312.94c0.02,0.07,0.07,0.15,0.14,0.2c0.37-0.9,3.47-2.28,7.36-3.25
						c3.9-0.98,7.28-1.22,8.02-0.6c0.04-0.07,0.05-0.17,0.03-0.24c-0.21-0.84-3.86-0.67-8.16,0.4
						C238.89,310.53,235.57,312.1,235.78,312.94z"/>
				</g>
				<g>
					<path style="opacity:0.4;fill:#407BFF;" d="M235.92,313.14c0.75,0.62,4.13,0.37,8.02-0.6c3.9-0.98,7-2.35,7.36-3.25
						c-0.74-0.62-4.12-0.38-8.02,0.6C239.39,310.87,236.3,312.24,235.92,313.14z"/>
				</g>
			</g>
			<g>
				<g>
					
						<ellipse transform="matrix(-0.9991 -0.0424 0.0424 -0.9991 458.1814 642.054)" style="fill:#407BFF;" cx="235.9" cy="316.17" rx="9.18" ry="2.33"/>
					
						<rect x="234.79" y="305.82" transform="matrix(0.0426 -0.9991 0.9991 0.0426 -88.8126 537.3256)" style="fill:#407BFF;" width="2.33" height="18.37"/>
				</g>
				<g>
					
						<ellipse transform="matrix(-0.9991 -0.0424 0.0424 -0.9991 458.4781 637.4096)" style="fill:#407BFF;" cx="236" cy="313.84" rx="9.18" ry="2.33"/>
					
						<ellipse transform="matrix(-0.9991 -0.0424 0.0424 -0.9991 458.4781 637.4096)" style="opacity:0.4;fill:#FFFFFF;" cx="236" cy="313.84" rx="9.18" ry="2.33"/>
				</g>
				<g>
					<path style="fill:#407BFF;" d="M228,313.41c0,0.08,0.03,0.17,0.08,0.23c0.61-0.75,3.97-1.2,7.98-1.03
						c4.02,0.17,7.33,0.9,7.86,1.7c0.06-0.06,0.09-0.15,0.1-0.22c0.04-0.87-3.51-1.74-7.94-1.93
						C231.66,311.97,228.03,312.54,228,313.41z"/>
					<path style="opacity:0.4;fill:#407BFF;" d="M228,313.41c0,0.08,0.03,0.17,0.08,0.23c0.61-0.75,3.97-1.2,7.98-1.03
						c4.02,0.17,7.33,0.9,7.86,1.7c0.06-0.06,0.09-0.15,0.1-0.22c0.04-0.87-3.51-1.74-7.94-1.93
						C231.66,311.97,228.03,312.54,228,313.41z"/>
				</g>
				<g>
					<path style="opacity:0.4;fill:#407BFF;" d="M228.08,313.64c0.55,0.8,3.85,1.53,7.86,1.7c4.02,0.17,7.38-0.27,7.98-1.03
						c-0.54-0.8-3.84-1.53-7.86-1.7C232.04,312.44,228.69,312.88,228.08,313.64z"/>
				</g>
			</g>
		</g>
		<g>
			<g>
				<g>
					
						<ellipse transform="matrix(-0.9991 -0.0425 0.0425 -0.9991 648.1783 645.9061)" style="fill:#407BFF;" cx="330.95" cy="316.07" rx="9.44" ry="2.39"/>
					
						<rect x="329.8" y="305.43" transform="matrix(0.0424 -0.9991 0.9991 0.0424 2.357 632.2102)" style="fill:#407BFF;" width="2.39" height="18.89"/>
				</g>
				<g>
					
						<ellipse transform="matrix(-0.9991 -0.0425 0.0425 -0.9991 648.4828 641.1313)" style="fill:#407BFF;" cx="331.05" cy="313.68" rx="9.44" ry="2.39"/>
					
						<ellipse transform="matrix(-0.9991 -0.0425 0.0425 -0.9991 648.4828 641.1313)" style="opacity:0.4;fill:#FFFFFF;" cx="331.05" cy="313.68" rx="9.44" ry="2.39"/>
				</g>
				<g>
					<path style="fill:#407BFF;" d="M322.82,313.24c0,0.08,0.03,0.17,0.08,0.24c0.63-0.78,4.08-1.23,8.2-1.06
						c4.13,0.18,7.53,0.92,8.08,1.75c0.06-0.06,0.1-0.15,0.1-0.23c0.04-0.89-3.61-1.79-8.16-1.98
						C326.58,311.76,322.86,312.34,322.82,313.24z"/>
					<path style="opacity:0.4;fill:#407BFF;" d="M322.82,313.24c0,0.08,0.03,0.17,0.08,0.24c0.63-0.78,4.08-1.23,8.2-1.06
						c4.13,0.18,7.53,0.92,8.08,1.75c0.06-0.06,0.1-0.15,0.1-0.23c0.04-0.89-3.61-1.79-8.16-1.98
						C326.58,311.76,322.86,312.34,322.82,313.24z"/>
				</g>
				<g>
					<path style="opacity:0.4;fill:#407BFF;" d="M322.9,313.47c0.56,0.83,3.96,1.57,8.08,1.75c4.13,0.18,7.58-0.28,8.2-1.06
						c-0.55-0.83-3.95-1.57-8.08-1.75C326.98,312.24,323.53,312.7,322.9,313.47z"/>
				</g>
			</g>
			<g>
				<g>
					
						<ellipse transform="matrix(-0.9991 -0.0425 0.0425 -0.9991 644.3688 638.5865)" style="fill:#407BFF;" cx="328.96" cy="312.45" rx="9.44" ry="2.39"/>
					
						<rect x="327.82" y="301.81" transform="matrix(0.0424 -0.9991 0.9991 0.0424 4.0744 626.7638)" style="fill:#407BFF;" width="2.39" height="18.89"/>
				</g>
				<g>
					
						<ellipse transform="matrix(-0.9991 -0.0424 0.0424 -0.9991 644.6899 633.7964)" style="fill:#407BFF;" cx="329.07" cy="310.06" rx="9.44" ry="2.39"/>
					
						<ellipse transform="matrix(-0.9991 -0.0424 0.0424 -0.9991 644.6899 633.7964)" style="opacity:0.4;fill:#FFFFFF;" cx="329.07" cy="310.06" rx="9.44" ry="2.39"/>
				</g>
				<g>
					<path style="fill:#407BFF;" d="M320.83,309.62c0,0.08,0.03,0.17,0.08,0.23c0.63-0.78,4.08-1.23,8.2-1.06
						c4.13,0.18,7.53,0.92,8.08,1.75c0.06-0.06,0.1-0.15,0.1-0.23c0.04-0.89-3.61-1.79-8.16-1.98
						C324.6,308.14,320.87,308.73,320.83,309.62z"/>
					<path style="opacity:0.4;fill:#407BFF;" d="M320.83,309.62c0,0.08,0.03,0.17,0.08,0.23c0.63-0.78,4.08-1.23,8.2-1.06
						c4.13,0.18,7.53,0.92,8.08,1.75c0.06-0.06,0.1-0.15,0.1-0.23c0.04-0.89-3.61-1.79-8.16-1.98
						C324.6,308.14,320.87,308.73,320.83,309.62z"/>
				</g>
				<g>
					<path style="opacity:0.4;fill:#407BFF;" d="M320.92,309.85c0.56,0.83,3.96,1.57,8.08,1.75c4.13,0.17,7.58-0.28,8.2-1.06
						c-0.55-0.83-3.95-1.57-8.08-1.75C325,308.62,321.55,309.08,320.92,309.85z"/>
				</g>
			</g>
			<g>
				<g>
					
						<ellipse transform="matrix(-0.9991 -0.0424 0.0424 -0.9991 652.9983 633.3945)" style="fill:#407BFF;" cx="333.22" cy="309.77" rx="9.44" ry="2.39"/>
					
						<rect x="332.07" y="299.13" transform="matrix(0.0425 -0.9991 0.9991 0.0425 10.8161 628.4409)" style="fill:#407BFF;" width="2.39" height="18.89"/>
				</g>
				<g>
					
						<ellipse transform="matrix(-0.9991 -0.0425 0.0425 -0.9991 653.2861 628.6372)" style="fill:#407BFF;" cx="333.32" cy="307.38" rx="9.44" ry="2.39"/>
					
						<ellipse transform="matrix(-0.9991 -0.0425 0.0425 -0.9991 653.2861 628.6372)" style="opacity:0.4;fill:#FFFFFF;" cx="333.32" cy="307.38" rx="9.44" ry="2.39"/>
				</g>
				<g>
					<path style="fill:#407BFF;" d="M325.09,306.94c0,0.08,0.03,0.17,0.08,0.24c0.63-0.78,4.08-1.23,8.2-1.06
						c4.13,0.17,7.53,0.92,8.08,1.75c0.06-0.06,0.1-0.15,0.1-0.23c0.04-0.89-3.61-1.79-8.16-1.98
						C328.85,305.46,325.12,306.05,325.09,306.94z"/>
					<path style="opacity:0.4;fill:#407BFF;" d="M325.09,306.94c0,0.08,0.03,0.17,0.08,0.24c0.63-0.78,4.08-1.23,8.2-1.06
						c4.13,0.17,7.53,0.92,8.08,1.75c0.06-0.06,0.1-0.15,0.1-0.23c0.04-0.89-3.61-1.79-8.16-1.98
						C328.85,305.46,325.12,306.05,325.09,306.94z"/>
				</g>
				<g>
					<path style="opacity:0.4;fill:#407BFF;" d="M325.17,307.18c0.56,0.83,3.96,1.57,8.08,1.75c4.13,0.18,7.58-0.28,8.2-1.06
						c-0.55-0.83-3.95-1.57-8.08-1.75C329.25,305.94,325.8,306.4,325.17,307.18z"/>
				</g>
			</g>
			<g>
				<g>
					
						<ellipse transform="matrix(-0.9991 -0.0424 0.0424 -0.9991 653.2524 626.162)" style="fill:#407BFF;" cx="333.27" cy="306.15" rx="9.44" ry="2.39"/>
					
						<rect x="332.12" y="295.52" transform="matrix(0.0427 -0.9991 0.9991 0.0427 14.4154 624.9611)" style="fill:#407BFF;" width="2.39" height="18.89"/>
				</g>
				<g>
					
						<ellipse transform="matrix(-0.9991 -0.0425 0.0425 -0.9991 653.5413 621.4043)" style="fill:#407BFF;" cx="333.37" cy="303.76" rx="9.44" ry="2.39"/>
					
						<ellipse transform="matrix(-0.9991 -0.0425 0.0425 -0.9991 653.5413 621.4043)" style="opacity:0.4;fill:#FFFFFF;" cx="333.37" cy="303.76" rx="9.44" ry="2.39"/>
				</g>
				<g>
					<path style="fill:#407BFF;" d="M325.14,303.32c0,0.08,0.03,0.17,0.08,0.24c0.63-0.78,4.08-1.23,8.2-1.06
						c4.13,0.18,7.53,0.92,8.08,1.75c0.06-0.06,0.1-0.15,0.1-0.23c0.04-0.89-3.61-1.79-8.16-1.98
						C328.9,301.84,325.17,302.43,325.14,303.32z"/>
					<path style="opacity:0.4;fill:#407BFF;" d="M325.14,303.32c0,0.08,0.03,0.17,0.08,0.24c0.63-0.78,4.08-1.23,8.2-1.06
						c4.13,0.18,7.53,0.92,8.08,1.75c0.06-0.06,0.1-0.15,0.1-0.23c0.04-0.89-3.61-1.79-8.16-1.98
						C328.9,301.84,325.17,302.43,325.14,303.32z"/>
				</g>
				<g>
					<path style="opacity:0.4;fill:#407BFF;" d="M325.22,303.56c0.56,0.83,3.96,1.57,8.08,1.75c4.13,0.18,7.58-0.28,8.2-1.06
						c-0.55-0.83-3.95-1.57-8.08-1.75C329.3,302.33,325.85,302.78,325.22,303.56z"/>
				</g>
			</g>
			<g>
				<g>
					
						<ellipse transform="matrix(-0.9991 -0.0424 0.0424 -0.9991 645.6272 620.0859)" style="fill:#407BFF;" cx="329.39" cy="303.2" rx="9.44" ry="2.39"/>
					
						<rect x="328.24" y="292.56" transform="matrix(0.0427 -0.9991 0.9991 0.0427 13.6579 618.2566)" style="fill:#407BFF;" width="2.39" height="18.89"/>
				</g>
				<g>
					
						<ellipse transform="matrix(-0.9991 -0.0425 0.0425 -0.9991 645.9164 615.3284)" style="fill:#407BFF;" cx="329.49" cy="300.81" rx="9.44" ry="2.39"/>
					
						<ellipse transform="matrix(-0.9991 -0.0425 0.0425 -0.9991 645.9164 615.3284)" style="opacity:0.4;fill:#FFFFFF;" cx="329.49" cy="300.81" rx="9.44" ry="2.39"/>
				</g>
				<g>
					<path style="fill:#407BFF;" d="M321.26,300.36c0,0.08,0.03,0.17,0.08,0.24c0.63-0.78,4.08-1.23,8.2-1.06
						c4.13,0.17,7.53,0.92,8.08,1.75c0.06-0.06,0.1-0.15,0.1-0.23c0.04-0.89-3.61-1.79-8.16-1.98
						C325.02,298.89,321.3,299.47,321.26,300.36z"/>
					<path style="opacity:0.4;fill:#407BFF;" d="M321.26,300.36c0,0.08,0.03,0.17,0.08,0.24c0.63-0.78,4.08-1.23,8.2-1.06
						c4.13,0.17,7.53,0.92,8.08,1.75c0.06-0.06,0.1-0.15,0.1-0.23c0.04-0.89-3.61-1.79-8.16-1.98
						C325.02,298.89,321.3,299.47,321.26,300.36z"/>
				</g>
				<g>
					<path style="opacity:0.4;fill:#407BFF;" d="M321.34,300.6c0.56,0.83,3.96,1.57,8.08,1.75c4.13,0.18,7.58-0.28,8.2-1.06
						c-0.55-0.83-3.95-1.57-8.08-1.75C325.42,299.37,321.97,299.82,321.34,300.6z"/>
				</g>
			</g>
		</g>
		<g>
			<g>
				
					<ellipse transform="matrix(-0.9051 -0.4253 0.4253 -0.9051 538.2852 747.9709)" style="fill:#407BFF;" cx="352.63" cy="313.91" rx="9.18" ry="2.33"/>
				
					<rect x="351.96" y="303.67" transform="matrix(0.4251 -0.9052 0.9052 0.4251 -80.1661 499.4897)" style="fill:#407BFF;" width="2.33" height="18.37"/>
			</g>
			<g>
				
					<ellipse transform="matrix(-0.9051 -0.4253 0.4253 -0.9051 541.0611 744.381)" style="fill:#407BFF;" cx="353.62" cy="311.8" rx="9.18" ry="2.33"/>
				
					<ellipse transform="matrix(-0.9051 -0.4253 0.4253 -0.9051 541.0611 744.381)" style="opacity:0.4;fill:#FFFFFF;" cx="353.62" cy="311.8" rx="9.18" ry="2.33"/>
			</g>
			<g>
				<path style="fill:#407BFF;" d="M346.4,308.31c-0.03,0.07-0.04,0.16-0.02,0.24c0.86-0.46,4.12,0.43,7.76,2.13
					c3.64,1.71,6.41,3.66,6.59,4.61c0.08-0.03,0.14-0.1,0.17-0.17c0.37-0.79-2.57-2.96-6.58-4.85
					C350.33,308.4,346.77,307.52,346.4,308.31z"/>
				<path style="opacity:0.4;fill:#407BFF;" d="M346.4,308.31c-0.03,0.07-0.04,0.16-0.02,0.24c0.86-0.46,4.12,0.43,7.76,2.13
					c3.64,1.71,6.41,3.66,6.59,4.61c0.08-0.03,0.14-0.1,0.17-0.17c0.37-0.79-2.57-2.96-6.58-4.85
					C350.33,308.4,346.77,307.52,346.4,308.31z"/>
			</g>
			<g>
				<path style="opacity:0.4;fill:#407BFF;" d="M346.38,308.55c0.19,0.95,2.96,2.9,6.59,4.61c3.64,1.71,6.91,2.6,7.76,2.14
					c-0.18-0.95-2.95-2.9-6.59-4.61C350.51,308.98,347.24,308.09,346.38,308.55z"/>
			</g>
		</g>
		<g>
			<g>
				
					<ellipse transform="matrix(-0.9991 -0.0424 0.0424 -0.9991 674.0381 643.3285)" style="fill:#407BFF;" cx="343.85" cy="314.51" rx="9.18" ry="2.33"/>
				
					<rect x="342.73" y="304.17" transform="matrix(0.0424 -0.9991 0.9991 0.0424 16.2464 643.6498)" style="fill:#407BFF;" width="2.33" height="18.37"/>
			</g>
			<g>
				
					<ellipse transform="matrix(-0.9991 -0.0424 0.0424 -0.9991 674.3339 638.6863)" style="fill:#407BFF;" cx="343.94" cy="312.19" rx="9.18" ry="2.33"/>
				
					<ellipse transform="matrix(-0.9991 -0.0424 0.0424 -0.9991 674.3339 638.6863)" style="opacity:0.4;fill:#FFFFFF;" cx="343.94" cy="312.19" rx="9.18" ry="2.33"/>
			</g>
			<g>
				<path style="fill:#407BFF;" d="M335.94,311.76c0,0.08,0.03,0.17,0.08,0.23c0.61-0.75,3.97-1.2,7.98-1.03
					c4.02,0.17,7.33,0.9,7.86,1.7c0.06-0.06,0.09-0.15,0.1-0.22c0.04-0.87-3.51-1.74-7.94-1.93
					C339.6,310.32,335.98,310.89,335.94,311.76z"/>
				<path style="opacity:0.4;fill:#407BFF;" d="M335.94,311.76c0,0.08,0.03,0.17,0.08,0.23c0.61-0.75,3.97-1.2,7.98-1.03
					c4.02,0.17,7.33,0.9,7.86,1.7c0.06-0.06,0.09-0.15,0.1-0.22c0.04-0.87-3.51-1.74-7.94-1.93
					C339.6,310.32,335.98,310.89,335.94,311.76z"/>
			</g>
			<g>
				<path style="opacity:0.4;fill:#407BFF;" d="M336.02,311.99c0.55,0.8,3.85,1.53,7.86,1.7c4.02,0.17,7.38-0.27,7.98-1.03
					c-0.54-0.8-3.84-1.53-7.86-1.7C339.99,310.79,336.63,311.23,336.02,311.99z"/>
			</g>
		</g>
	</g>
</g>
<g id="Chart_1">
	<g>
		<g>
			<g>
				<path style="fill:#407BFF;" d="M172.99,107.22v6.04c3.9,0.31,7.44,1.85,10.25,4.24l4.27-4.27
					C183.59,109.76,178.55,107.55,172.99,107.22z"/>
			</g>
			<g>
				<path style="fill:#407BFF;" d="M170.07,149.28c-8.82-0.7-15.85-7.73-16.55-16.55h-6.04c0.72,12.15,10.45,21.87,22.59,22.59
					V149.28z"/>
			</g>
			<g>
				<path style="fill:#407BFF;" d="M153.52,129.81c0.71-8.82,7.74-15.85,16.55-16.55v-6.04c-12.15,0.73-21.87,10.45-22.59,22.59
					H153.52z"/>
				<path style="opacity:0.2;" d="M153.52,129.81c0.71-8.82,7.74-15.85,16.55-16.55v-6.04c-12.15,0.73-21.87,10.45-22.59,22.59
					H153.52z"/>
			</g>
			<path style="fill:#407BFF;" d="M189.57,115.29l-4.27,4.27c2.68,3.15,4.31,7.24,4.31,11.71c0,9.49-7.32,17.27-16.62,18.01v6.04
				c12.63-0.75,22.64-11.23,22.64-24.05C195.63,125.14,193.34,119.55,189.57,115.29z"/>
		</g>
		<g>
			<g style="opacity:0.8;">
				<path style="fill:#FFFFFF;" d="M172.99,107.22v6.04c3.9,0.31,7.44,1.85,10.25,4.24l4.27-4.27
					C183.59,109.76,178.55,107.55,172.99,107.22z"/>
			</g>
			<g style="opacity:0.6;">
				<path style="fill:#FFFFFF;" d="M170.07,149.28c-8.82-0.7-15.85-7.73-16.55-16.55h-6.04c0.72,12.15,10.45,21.87,22.59,22.59
					V149.28z"/>
			</g>
			<g style="opacity:0.7;">
				<path style="fill:#FFFFFF;" d="M153.52,129.81c0.71-8.82,7.74-15.85,16.55-16.55v-6.04c-12.15,0.73-21.87,10.45-22.59,22.59
					H153.52z"/>
			</g>
			<path style="opacity:0.5;fill:#FFFFFF;" d="M189.57,115.29l-4.27,4.27c2.68,3.15,4.31,7.24,4.31,11.71
				c0,9.49-7.32,17.27-16.62,18.01v6.04c12.63-0.75,22.64-11.23,22.64-24.05C195.63,125.14,193.34,119.55,189.57,115.29z"/>
		</g>
	</g>
</g>
<g id="Arrow">
	<g>
		<g>
			<g>
				<polygon style="fill:#407BFF;" points="215.36,100.85 223.01,111.22 267.09,92.92 310.05,108.21 348.99,83.03 351.78,86.74 
					361.02,71.6 340.29,69.98 343.48,74.17 304.51,99.1 262.18,84.09 				"/>
			</g>
		</g>
		<g style="opacity:0.5;">
			<g>
				<polygon style="fill:#FFFFFF;" points="215.36,100.85 223.01,111.22 267.09,92.92 310.05,108.21 348.99,83.03 351.78,86.74 
					361.02,71.6 340.29,69.98 343.48,74.17 304.51,99.1 262.18,84.09 				"/>
			</g>
		</g>
	</g>
</g>
<g id="Symbol">
	<g>
		<g>
			<path style="fill:#407BFF;" d="M396.04,107.31c-5.36,0-9.7,4.34-9.7,9.7c0,5.35,4.34,9.7,9.7,9.7c5.35,0,9.7-4.35,9.7-9.7
				C405.74,111.65,401.39,107.31,396.04,107.31z M396.04,121.85c-2.68,0-4.85-2.17-4.85-4.85c0-2.68,2.17-4.85,4.85-4.85
				c2.68,0,4.85,2.17,4.85,4.85C400.89,119.69,398.72,121.85,396.04,121.85z"/>
			<path style="fill:#407BFF;" d="M420.5,135.76c-5.36,0-9.7,4.34-9.7,9.7c0,5.35,4.34,9.7,9.7,9.7c5.35,0,9.7-4.35,9.7-9.7
				C430.2,140.11,425.85,135.76,420.5,135.76z M420.5,150.31c-2.68,0-4.85-2.17-4.85-4.85c0-2.68,2.17-4.85,4.85-4.85
				s4.85,2.17,4.85,4.85C425.35,148.14,423.18,150.31,420.5,150.31z"/>
			<g>
				<polygon style="fill:#407BFF;" points="399.68,155.17 393.24,155.17 415.65,107.31 422.09,107.31 				"/>
			</g>
		</g>
		<g style="opacity:0.5;">
			<path style="fill:#FFFFFF;" d="M396.04,107.31c-5.36,0-9.7,4.34-9.7,9.7c0,5.35,4.34,9.7,9.7,9.7c5.35,0,9.7-4.35,9.7-9.7
				C405.74,111.65,401.39,107.31,396.04,107.31z M396.04,121.85c-2.68,0-4.85-2.17-4.85-4.85c0-2.68,2.17-4.85,4.85-4.85
				c2.68,0,4.85,2.17,4.85,4.85C400.89,119.69,398.72,121.85,396.04,121.85z"/>
			<path style="fill:#FFFFFF;" d="M420.5,135.76c-5.36,0-9.7,4.34-9.7,9.7c0,5.35,4.34,9.7,9.7,9.7c5.35,0,9.7-4.35,9.7-9.7
				C430.2,140.11,425.85,135.76,420.5,135.76z M420.5,150.31c-2.68,0-4.85-2.17-4.85-4.85c0-2.68,2.17-4.85,4.85-4.85
				s4.85,2.17,4.85,4.85C425.35,148.14,423.18,150.31,420.5,150.31z"/>
			<g>
				<polygon style="fill:#FFFFFF;" points="399.68,155.17 393.24,155.17 415.65,107.31 422.09,107.31 				"/>
			</g>
		</g>
	</g>
</g>
<g id="Character">
	<g>
		<g>
			<g>
				<g>
					<g>
						<g>
							<g id="Character--inject-2_1_">
								<path style="fill:#FF8B7B;" d="M287.89,106.25c0.27,1.24,0.51,2.31,0.81,3.44c0.3,1.13,0.59,2.2,0.93,3.33
									c0.65,2.19,1.4,4.36,2.23,6.58c1.65,4.59,3.92,8.94,6.74,12.92c0.83,1.11,1.76,2.15,2.77,3.11
									c1.13,1.08,2.41,1.99,3.81,2.69c2.68,1.3,5.65,1.88,8.63,1.67c2.6-0.18,5.16-0.78,7.57-1.78c1.14-0.46,2.25-0.99,3.32-1.59
									c0.54-0.29,1.06-0.61,1.56-0.97c0.5-0.36,0.98-0.67,1.56-1.09l-2.63-4.72l-1.4,0.37l-1.47,0.35
									c-0.99,0.22-1.96,0.4-2.96,0.54c-1.81,0.27-3.64,0.31-5.46,0.11c-1.45-0.15-2.85-0.65-4.06-1.46c-0.52-0.37-1-0.8-1.43-1.28
									c-0.53-0.62-1.02-1.27-1.46-1.96c-1.02-1.6-1.9-3.29-2.65-5.04c-0.82-1.81-1.54-3.72-2.22-5.68
									c-0.68-1.96-1.29-3.95-1.9-5.95l-0.86-3.03c-0.27-1-0.57-2.06-0.78-2.93L287.89,106.25z"/>
								<path style="fill:#407BFF;" d="M287.03,100.18c4.53-5.76,11.42-3.65,15.29,5.53c2.15,4.89,3.85,9.96,5.08,15.15l-16.14,5.67
									C287.02,117.85,282.36,106.1,287.03,100.18z"/>
								<path style="opacity:0.1;" d="M287.03,100.18c4.53-5.76,11.42-3.65,15.29,5.53c2.15,4.89,3.85,9.96,5.08,15.15l-16.14,5.67
									C287.02,117.85,282.36,106.1,287.03,100.18z"/>
								<path style="opacity:0.3;enable-background:new    ;" d="M293.77,109.82c-1.33-0.91-4.05,4.34-5.31,10.53
									c0.88,2.16,1.84,4.22,2.79,6.15l9.71-3.41C299.36,117.29,296.76,111.86,293.77,109.82z"/>
								<path style="fill:#FF8B7B;" d="M326.01,127.46l3.53-1.93l1.23,7.89c0,0-5.9,3.55-7.59,0.61l0.18-2.04
									C323.56,130.18,324.52,128.53,326.01,127.46z"/>
								<polygon style="fill:#FF8B7B;" points="333.97,125.15 337.06,131.49 330.74,133.43 329.51,125.54 								"/>
								<g>
									<g>
										<path style="fill:#407BFF;" d="M286.96,95.03l-8.26-1.16l-10.29,0.9c-3.21,0.28-5.84,2.67-6.42,5.84
											c-1.14,6.23-1.76,15.05-2.08,22.66c-0.36,8.54,0.58,21.17,1.96,32.56l34.38-4.16c0.33-30,2.6-39.29,2.88-47.24
											c0.12-3.2-1.91-6.09-4.96-7.06L286.96,95.03z"/>
									</g>
									<g>
										<g>
											<g>
												<g>
													<g>
														<g>
															<polygon style="fill:#FF8B7B;" points="297.36,243.79 304.67,245.82 311.23,228.63 303.92,226.61 															"/>
															<path style="fill:#263238;" d="M307.94,243.53c-0.57-0.75-1.42-1.24-2.34-1.42l-7.53-1.46
																c-0.35-0.08-0.7,0.12-0.81,0.46l-2.33,6.87c-0.28,0.78,0.14,1.64,0.92,1.92c0.02,0.01,0.03,0.01,0.05,0.02
																c2.77,1.09,4.65,0.71,9,1.55c2.67,0.52,8.29,2.3,12.05,2.15c3.75-0.15,3.74-3.87,2.17-4.14
																C313.5,248.59,309.22,245.23,307.94,243.53z"/>
															<g style="opacity:0.2;">
																<polygon points="311.23,228.64 307.74,237.78 300.54,235.47 303.92,226.61 																"/>
															</g>
															<g>
																<path style="fill:#263238;" d="M329.47,177.95c-0.24,2.66-0.77,5.35-1.48,8.05c-1.93,7.46-5.23,15.06-7.96,22.47
																	c-5.4,14.64-10.09,27.4-10.09,27.4l-10.03-3.46c0,0,9.01-42.36,15.07-46.69h-37.21c-0.72,0-1.42-0.05-2.08-0.14
																	c6.42-0.82,16.4-4.78,25.67-8.73c8.19-3.5,15.85-6.97,20.01-8.32h0.01v0.01
																	C326.45,170.66,329.87,173.67,329.47,177.95z"/>
																<path style="opacity:0.1;" d="M329.47,177.95c-0.24,2.66-0.77,5.35-1.48,8.05c-1.93,7.46-5.23,15.06-7.96,22.47
																	c-5.4,14.64-10.09,27.4-10.09,27.4l-10.03-3.46c0,0,9.01-42.36,15.07-46.69h-37.21c-0.72,0-1.42-0.05-2.08-0.14
																	c6.42-0.82,16.4-4.78,25.67-8.73c8.19-3.5,15.85-6.97,20.01-8.32h0.01v0.01
																	C326.45,170.66,329.87,173.67,329.47,177.95z"/>
																<path style="opacity:0.6;" d="M321.39,168.54c-4.16,1.35-11.82,4.82-20.01,8.32c-9.27,3.95-19.25,7.9-25.67,8.73
																	c-10.8-1.44-14.86-14.3-3.57-29.14c7.33,0.01,14.7,7.02,14.7,7.02S309.01,163.33,321.39,168.54z"/>
															</g>
														</g>
														<g>
															<polygon style="fill:#FF8B7B;" points="348.32,229.01 356.51,229.01 347.93,208.47 342.38,217.91 															"/>
															<path style="fill:#263238;" d="M355.84,227.08l-9.61-2.18c-0.34-0.09-0.69,0.1-0.81,0.43l-2.68,7.39
																c-0.23,0.78,0.22,1.6,1.01,1.83c0.01,0,0.03,0.01,0.05,0.01c3.37,0.7,5.02,0.87,9.25,1.83
																c2.6,0.59,9.18,2.32,12.77,3.13c3.59,0.81,4.53-2.7,3.1-3.37c-6.41-2.97-9.88-5.8-11.74-8.22
																C356.84,227.5,356.37,227.19,355.84,227.08z"/>
															<g style="opacity:0.2;">
																<polygon points="347.93,208.48 351.58,217.23 344.22,221.34 342.38,217.91 																"/>
															</g>
															<g>
																<g>
																	<path style="fill:#263238;" d="M351.69,214.11l-9.01,5.45c0,0-7.5-15.77-14.69-33.56
																		c0.71-2.71,1.23-5.39,1.48-8.05c0.39-4.28-3.02-7.29-8.08-9.4v-0.01h-0.01c-4.16,1.35-11.82,4.82-20.01,8.32
																		c-9.27,3.95-19.25,7.9-25.67,8.73c-0.8,0.11-1.53,0.16-2.22,0.16c-12.32,0-16.57-10.8-11.6-29.12
																		c7.33-0.03,19.88-0.79,19.88-0.79s24.22-5.82,41.65-3.83c8.49,0.96,15.37,7.34,17.04,15.75
																		C344.88,190,351.69,214.11,351.69,214.11z"/>
																</g>
															</g>
															<g>
																<g>
																	<path style="fill:#263238;" d="M351.69,214.11l-9.01,5.45c0,0-7.5-15.77-14.69-33.56
																		c0.71-2.71,1.23-5.39,1.48-8.05c0.39-4.28-3.02-7.29-8.08-9.4v-0.01h-0.01c-4.16,1.35-11.82,4.82-20.01,8.32
																		c-9.27,3.95-19.25,7.9-25.67,8.73c-0.8,0.11-1.53,0.16-2.22,0.16c-12.32,0-16.57-10.8-11.6-29.12
																		c7.33-0.03,19.88-0.79,19.88-0.79s24.22-5.82,41.65-3.83c8.49,0.96,15.37,7.34,17.04,15.75
																		C344.88,190,351.69,214.11,351.69,214.11z"/>
																</g>
															</g>
														</g>
													</g>
												</g>
											</g>
										</g>
										<path style="fill:#407BFF;" d="M286.96,95.03l-8.26-1.16l-10.29,0.9c-3.21,0.28-5.84,2.67-6.42,5.84
											c-1.14,6.23-1.76,15.05-2.08,22.66c-0.36,8.54,0.58,21.17,1.96,32.56l34.38-4.16c0.33-30,2.6-39.29,2.88-47.24
											c0.12-3.2-1.91-6.09-4.96-7.06L286.96,95.03z"/>
										<path style="fill:#263238;" d="M261.86,153.93l-0.89,2.79c-0.12,0.21,0.13,0.44,0.49,0.46l34.32-2.06
											c0.29,0,0.52-0.12,0.55-0.31l0.36-2.81c0-0.2-0.21-0.36-0.52-0.38l-33.77,2.08C262.2,153.68,261.99,153.77,261.86,153.93z
											"/>
										<path style="opacity:0.1;" d="M261.86,153.93l-0.89,2.79c-0.12,0.21,0.13,0.44,0.49,0.46l34.32-2.06
											c0.29,0,0.52-0.12,0.55-0.31l0.36-2.81c0-0.2-0.21-0.36-0.52-0.38l-33.77,2.08C262.2,153.68,261.99,153.77,261.86,153.93z
											"/>
									</g>
								</g>
								<path style="opacity:0.3;enable-background:new    ;" d="M265.33,97.78c6.86-1.2,6.52,14.36,3.4,25.76
									c-0.9,3.3-4.8,1.92-6.13,1.06C258.28,121.78,256.82,102.76,265.33,97.78z"/>
								<g>
									<path style="fill:#FF8B7B;" d="M264.51,120.83c0.26,6.74-1.88,10.26,1.7,12.51c3.58,2.25,24.8,9.28,25.32,8.4
										c-1.03,1.63-2.02,3.01-3.05,4.64c-6.11-0.92-12.23-1.76-18.35-2.54c-4.47-0.57-11.68-1.72-15.18-4.55
										c-3.17-2.56-2.61-13.81-2.07-21.91C255.74,115.72,264.51,120.83,264.51,120.83z"/>
								</g>
								<path style="fill:#407BFF;" d="M262.67,95.04c7.05-2.07,9.72,3.58,7.57,13.26c-1.08,5.23-2.63,10.35-4.63,15.29l-14.74-4.65
									C252.47,109.43,255.46,97.16,262.67,95.04z"/>
								<path style="fill:#407BFF;" d="M272.89,94.99c-0.25,1.47,0.25,2.98,1.06,4.23c0.81,1.24,1.92,2.26,3.02,3.27
									c1.39,1.28,3.06,2.64,4.93,2.39c1.73-0.23,2.72-1.1,3.42-3.16c1.48,2.39,1.55,3.58,3.18,3.73c1.06,0.1,1.98-0.67,2.72-1.43
									c1.31-1.34,1.89-2.11,2.13-3.97c0.39-3.02-2.07-5.83-4.92-6.89c-3.07-1.14-5.79-1.41-8.98-1.78
									C276.79,91.07,273.42,91.9,272.89,94.99z"/>
								<path style="opacity:0.3;" d="M272.89,94.99c-0.25,1.47,0.25,2.98,1.06,4.23c0.81,1.24,1.92,2.26,3.02,3.27
									c1.39,1.28,3.06,2.64,4.93,2.39c1.73-0.23,2.72-1.1,3.42-3.16c1.48,2.39,1.55,3.58,3.18,3.73c1.06,0.1,1.98-0.67,2.72-1.43
									c1.31-1.34,1.89-2.11,2.13-3.97c0.39-3.02-2.07-5.83-4.92-6.89c-3.07-1.14-5.79-1.41-8.98-1.78
									C276.79,91.07,273.42,91.9,272.89,94.99z"/>
								<path style="fill:#FF8B7B;" d="M280.1,80.48l3.73,4.31l5.07,5.86c-0.47,0.62-0.82,1.33-1.04,2.08
									c-0.54,1.65-0.38,3.29,1.41,4.49c0.78,0.36,1.17,4.41-3.92,3.98c-3.47-0.19-5.67-1.4-7.69-3.5
									c-0.94-1.25-1.18-1.93-0.22-3.29C280.19,90.54,280.4,84.94,280.1,80.48z"/>
								<path style="opacity:0.2;enable-background:new    ;" d="M287.68,89.2l-3.2-4.24c-0.04,0.13-0.08,0.26-0.13,0.4
									c-0.15,0.6-0.26,1.21-0.32,1.82c-0.19,2.1,1.78,4.79,3.7,5.94l0.15-0.42c0.22-0.7,0.54-1.37,0.95-1.99
									c0.03-0.03,0.06-0.06,0.09-0.09L287.68,89.2z"/>
								<path style="fill:#FF8B7B;" d="M280.44,72.55c-0.58,6.95-1.22,10.99,1.77,14.94c4.51,5.97,13.48,3.86,16.1-2.82
									c2.36-6.01,2.85-16.37-3.53-19.95c-4.68-2.59-10.57-0.89-13.15,3.79C280.94,69.75,280.54,71.13,280.44,72.55z"/>
								<path style="fill:#263238;" d="M279.42,78.7l2.97,1.29l0,0c1.03-0.42,1.23-1.63,1.16-2.73c-0.26-4.24,7.34-9.46,7.34-9.46
									s-8.09-2.65-10.52-3.06c-0.85-0.14-3.91,2.08-4.39,3.05c-1.34,2.72-0.79,5.95,1.05,8.36
									C277.74,77.07,278.54,77.93,279.42,78.7z"/>
								<path style="fill:#FF8B7B;" d="M276.87,77.45c0.14,1.55,0.85,3,1.99,4.06c1.49,1.35,3.3-0.13,3.51-2.1
									c0.18-1.76-0.71-4.34-2.5-4.93C278.08,73.89,276.7,75.51,276.87,77.45z"/>
								<path style="fill:#263238;" d="M290.87,76.72c-0.11,0.57,0.1,1.1,0.48,1.18c0.38,0.08,0.72-0.31,0.86-0.88
									s-0.1-1.1-0.48-1.19C291.36,75.75,290.98,76.14,290.87,76.72z"/>
								<path style="fill:#263238;" d="M297.29,78.13c-0.11,0.58,0.1,1.11,0.48,1.19c0.37,0.08,0.75-0.31,0.86-0.88
									c0.11-0.56-0.11-1.1-0.48-1.18C297.78,77.18,297.39,77.56,297.29,78.13z"/>
								<path style="fill:#FF5652;" d="M295.15,78.1c0.2,1.63,0.61,3.23,1.22,4.76c-1.04,0.55-2.38-0.23-2.38-0.23L295.15,78.1z"/>
								<path style="fill:#263238;" d="M292.37,85.87c-1.29-0.45-2.33-1.41-2.89-2.65c-0.04-0.09,0.01-0.19,0.09-0.22
									c0.09-0.03,0.19,0.01,0.22,0.1c0.63,1.34,1.85,2.32,3.3,2.64c0.09,0.01,0.16,0.1,0.15,0.2c-0.01,0.09-0.1,0.16-0.2,0.15
									c-0.01,0-0.02,0-0.02-0.01C292.8,86.02,292.59,85.95,292.37,85.87z"/>
								<path style="fill:#263238;" d="M289.99,74.42c-0.06-0.02-0.1-0.05-0.14-0.09c-0.12-0.15-0.1-0.36,0.04-0.48
									c0.81-0.73,1.94-1,2.99-0.72c0.18,0.05,0.28,0.24,0.23,0.42c0,0,0,0.01,0,0.01c-0.06,0.18-0.25,0.28-0.43,0.22
									c-0.83-0.2-1.7,0.02-2.34,0.59C290.24,74.45,290.11,74.47,289.99,74.42z"/>
								<path style="fill:#263238;" d="M298.02,74.43c-0.02-0.05-0.03-0.11-0.02-0.17c0.05-0.18,0.24-0.29,0.42-0.24
									c1.06,0.25,1.92,1.02,2.29,2.05c0.06,0.18-0.04,0.37-0.22,0.42s-0.37-0.04-0.42-0.22c-0.31-0.8-0.99-1.39-1.82-1.59
									C298.13,74.64,298.04,74.55,298.02,74.43z"/>
							</g>
							<g>
								<g>
									<g>
										<g>
											<g>
												<path style="fill:#407BFF;" d="M300.13,153.22l43.88,0.13c1.55,0,2.93-1.26,3.07-2.81l2.01-22.21
													c0.14-1.55-1.01-2.82-2.56-2.82l-43.88-0.13c-1.55,0-2.93,1.26-3.07,2.81l-2.01,22.21
													C297.43,151.95,298.58,153.22,300.13,153.22z"/>
												<path style="opacity:0.3;" d="M300.13,153.22l43.88,0.13c1.55,0,2.93-1.26,3.07-2.81l2.01-22.21
													c0.14-1.55-1.01-2.82-2.56-2.82l-43.88-0.13c-1.55,0-2.93,1.26-3.07,2.81l-2.01,22.21
													C297.43,151.95,298.58,153.22,300.13,153.22z"/>
											</g>
											<g>
												<path style="fill:#407BFF;" d="M301.42,153.13l43.88,0.13c1.55,0,2.93-1.26,3.07-2.81l2.01-22.21
													c0.14-1.55-1.01-2.82-2.56-2.82l-43.88-0.13c-1.55,0-2.93,1.26-3.07,2.81l-2.01,22.21
													C298.72,151.86,299.87,153.13,301.42,153.13z"/>
												<path style="opacity:0.2;fill:#FFFFFF;" d="M301.42,153.13l43.88,0.13c1.55,0,2.93-1.26,3.07-2.81l2.01-22.21
													c0.14-1.55-1.01-2.82-2.56-2.82l-43.88-0.13c-1.55,0-2.93,1.26-3.07,2.81l-2.01,22.21
													C298.72,151.86,299.87,153.13,301.42,153.13z"/>
											</g>
										</g>
									</g>
									<circle style="fill:#FFFFFF;" cx="324.62" cy="139.27" r="3.1"/>
								</g>
								<g>
									<path style="fill:#407BFF;" d="M345.91,153.23c0,1.33-0.79,2.41-1.75,2.41c-0.01,0-0.01,0-0.02,0l-45.29-0.18
										c-0.49,0-0.89-0.55-0.89-1.2c0.01-0.67,0.4-1.22,0.89-1.22L345.91,153.23z"/>
									<path style="opacity:0.3;" d="M345.91,153.23c0,1.33-0.79,2.41-1.75,2.41c-0.01,0-0.01,0-0.02,0l-45.29-0.18
										c-0.49,0-0.89-0.55-0.89-1.2c0.01-0.67,0.4-1.22,0.89-1.22L345.91,153.23z"/>
								</g>
								<path style="fill:#407BFF;" d="M298.61,155.47h-21.8c-1.16,0-2.1-0.94-2.1-2.1l0,0c0-0.18,0.15-0.33,0.33-0.33h23.57
									c0.67,0,1.21,0.54,1.21,1.21l0,0C299.83,154.92,299.28,155.47,298.61,155.47z"/>
							</g>
							<g>
								<path style="fill:#FF8B7B;" d="M286.84,138.64l3.62-1.06l-0.33,8.91c0,0-7.86,1.85-8.35-1.77l1.01-1.95
									C283.64,141.08,284.85,139.13,286.84,138.64z"/>
								<polygon style="fill:#FF8B7B;" points="295.88,140.05 294.81,145.05 290.12,146.48 290.46,137.58 								"/>
							</g>
						</g>
					</g>
				</g>
				<polygon style="fill:#407BFF;" points="297.31,231.65 312.31,236.74 315.37,230.54 298.79,225.27 				"/>
				<polygon style="fill:#407BFF;" points="340.4,220.8 354.23,213.08 351.68,206.65 336.66,215.43 				"/>
			</g>
		</g>
		<path style="fill:#263238;" d="M300.63,72.47c2.05-0.11,2.89-2.54,2.65-3.59c-0.32-1.36-1.13-2.59-2.31-3.32
			c0.66-2.05-0.23-4.45-2.71-6.13c-1.61-1.1-4.26-1.19-6-0.44c0-1.81-3.33-3-5.46-0.75c-1.87-1.04-4.21-0.98-5.74,0.52
			c-0.5,0.49-0.86,1.26-0.63,1.93c-1.69,0.02-3.34,1.02-4.13,2.52c-0.79,1.49-0.7,3.42,0.24,4.83c0.68,1.02,2.26,1,3.46,0.74
			c0.57,1.22,1.81,1.85,3.09,2.27c3.96,1.31,9.38,0.08,10.34-0.03s1.98,0,2.78,0.56c-0.27,0.53-0.98,0.77-1.57,0.86
			s-1.19,0-1.78-0.09c1.46,0.82,2.9,1.29,4.53,0.93c0.49-0.11,1.59-0.87,2.08-0.91C299.97,72.33,300.68,72.55,300.63,72.47z"/>
	</g>
</g>
</svg>
